<?xml version="1.0" encoding="utf-8"?>
<!-- Generator: Adobe Illustrator 26.0.1, SVG Export Plug-In . SVG Version: 6.00 Build 0)  -->
<svg version="1.1" id="Ñëîé_1" xmlns="http://www.w3.org/2000/svg" xmlns:xlink="http://www.w3.org/1999/xlink" x="0px" y="0px"
	 viewBox="0 0 1080.35 1425.95" style="enable-background:new 0 0 1080.35 1425.95;" xml:space="preserve">
<style type="text/css">
	.st0{fill:url(#SVGID_1_);}
	.st1{opacity:0.6;fill:#020230;}
	.st2{fill:url(#SVGID_00000004514574995910546490000013805514227263463812_);}
	.st3{fill:url(#SVGID_00000066493114719716865700000013845748191777396644_);}
	.st4{fill:url(#SVGID_00000115473530491042339980000011694094557629680307_);}
	.st5{fill:#FFFFFF;}
	.st6{opacity:0.4;}
	.st7{fill:#06033E;}
	.st8{fill:url(#SVGID_00000059296183887486536100000007709549835101822654_);}
	.st9{fill:url(#SVGID_00000135672475089204841550000001728352111426637957_);}
	.st10{opacity:0.4;fill:#06033E;}
	.st11{opacity:0.5;fill:#06033E;}
	.st12{fill:url(#SVGID_00000101812932988489618560000007608643291177586056_);}
	.st13{opacity:0.5;}
	.st14{fill:url(#SVGID_00000134930210310858390860000017522778990634952125_);}
	.st15{fill:#E8975B;}
	.st16{fill:#F8359E;}
	.st17{fill:url(#SVGID_00000117653463689725607040000012246873205535881135_);}
	.st18{fill:url(#SVGID_00000119080038386353354780000014719494791022343076_);}
	.st19{fill:url(#SVGID_00000064336798861235869150000015566760556114296999_);}
	.st20{fill:url(#SVGID_00000010290228179916110660000013715904292578669716_);}
	.st21{fill:url(#SVGID_00000023245741997329814010000000634803160172177048_);}
	.st22{fill:url(#SVGID_00000025435211517367730520000003035175906194325928_);}
	.st23{fill:#0C0A78;}
	.st24{fill:url(#SVGID_00000074405936185164671390000010053468945006228918_);}
</style>
<radialGradient id="SVGID_1_" cx="678.52" cy="-206.407" r="642.2831" gradientTransform="matrix(2.2327 0 0 3.9372 -1395.7281 488.9987)" gradientUnits="userSpaceOnUse">
	<stop  offset="3.968250e-03" style="stop-color:#2459FD"/>
	<stop  offset="0.0606" style="stop-color:#204EE4"/>
	<stop  offset="0.1723" style="stop-color:#193AB8"/>
	<stop  offset="0.2892" style="stop-color:#132992"/>
	<stop  offset="0.4101" style="stop-color:#0E1B74"/>
	<stop  offset="0.5363" style="stop-color:#0B115C"/>
	<stop  offset="0.6701" style="stop-color:#08094B"/>
	<stop  offset="0.8166" style="stop-color:#060441"/>
	<stop  offset="1" style="stop-color:#06033E"/>
</radialGradient>
<rect x="0" y="0" class="st0" width="1080.35" height="1425.95"/>
<g>
	<path class="st1" d="M987.1,174.89l-57.4-26.24l-19.34,27.08l-83.6-48.26c-1.61-0.93-4.42-0.81-6.28,0.26l-70.92,40.95
		c-1.86,1.07-2.06,2.7-0.45,3.63l110.5,63.8c1.61,0.93,4.42,0.81,6.28-0.26l70.03-40.43l0,0l51-17.08
		C988.51,177.79,988.63,175.59,987.1,174.89z"/>
	
		<radialGradient id="SVGID_00000091712673034996088360000007204401956492128898_" cx="854.5029" cy="16.147" r="170.8359" gradientUnits="userSpaceOnUse">
		<stop  offset="0" style="stop-color:#E39A65"/>
		<stop  offset="0.4742" style="stop-color:#A92FFB"/>
		<stop  offset="0.5947" style="stop-color:#891CFB"/>
		<stop  offset="0.7421" style="stop-color:#6507FA"/>
		<stop  offset="0.8016" style="stop-color:#0D0C6F"/>
	</radialGradient>
	<path style="fill:url(#SVGID_00000091712673034996088360000007204401956492128898_);" d="M966.62,83.68L856.55,20.14
		c-0.76-0.44-1.55-0.53-2.25-0.32v0l0,0c0,0-0.01,0-0.01,0l-2.04,0.71l0.72,0.17c-0.29,0.34-0.52,0.76-0.67,1.26l-24.89,80.81
		c-0.62,2,0.29,4.44,2.02,5.44l110.06,63.55c0.27,0.15,0.54,0.26,0.81,0.33l-0.27,0.59l1.95-0.68l0,0c0.8-0.32,1.45-1.03,1.77-2.06
		l24.89-80.81C969.25,87.12,968.35,84.68,966.62,83.68z"/>
	
		<radialGradient id="SVGID_00000068658273422798309500000010021647848877722524_" cx="750.0159" cy="153.3407" r="186.8077" gradientUnits="userSpaceOnUse">
		<stop  offset="0" style="stop-color:#E39A65"/>
		<stop  offset="0.4742" style="stop-color:#A92FFB"/>
		<stop  offset="0.5679" style="stop-color:#891CFB"/>
		<stop  offset="0.6825" style="stop-color:#6507FA"/>
		<stop  offset="0.7381" style="stop-color:#0D0C6F"/>
	</radialGradient>
	<path style="fill:url(#SVGID_00000068658273422798309500000010021647848877722524_);" d="M935.56,174.77l0.04,0.05l-108.71-62.77
		c-1.6-0.92-4.39-0.81-6.24,0.26l-70.24,40.55l-2.34-0.89l0.66,3.29l0,0c0.09,0.49,0.43,0.96,1.05,1.32l109.72,63.35
		c1.6,0.92,4.39,0.81,6.24-0.26L936.15,179c0.87-0.5,1.37-1.12,1.49-1.74l0,0l0.67-3.2L935.56,174.77z"/>
	
		<radialGradient id="SVGID_00000047742953257781588070000000293933337276188564_" cx="767.1972" cy="115.8453" r="167.5186" gradientUnits="userSpaceOnUse">
		<stop  offset="0" style="stop-color:#E39A65"/>
		<stop  offset="0.4742" style="stop-color:#A92FFB"/>
		<stop  offset="0.5875" style="stop-color:#891CFB"/>
		<stop  offset="0.7262" style="stop-color:#6507FA"/>
		<stop  offset="1" style="stop-color:#3919BB"/>
	</radialGradient>
	<path style="fill:url(#SVGID_00000047742953257781588070000000293933337276188564_);" d="M859.61,217.02l-110.5-63.8
		c-1.61-0.93-1.41-2.55,0.45-3.63l70.92-40.95c1.86-1.07,4.67-1.19,6.28-0.26l110.5,63.8c1.61,0.93,1.41,2.55-0.45,3.63
		l-70.92,40.95C864.03,217.84,861.22,217.95,859.61,217.02z"/>
	<path class="st5" d="M936.81,174.96l-70.92,40.94c-1.86,1.07-4.67,1.19-6.28,0.26l-110.5-63.8c-0.55-0.32-0.87-0.72-1-1.15
		c-0.21,0.74,0.1,1.48,1,2.01l110.5,63.8c1.61,0.93,4.42,0.81,6.28-0.26l70.92-40.95c1.23-0.71,1.72-1.65,1.46-2.48
		C938.1,173.91,937.63,174.49,936.81,174.96z"/>
	<g class="st6">
		<path class="st7" d="M801.82,142.88l-3.73-2.15c-0.3-0.17-0.26-0.48,0.08-0.67l4.4-2.54c0.35-0.2,0.87-0.22,1.17-0.05l3.73,2.15
			c0.3,0.17,0.26,0.47-0.08,0.67l-4.4,2.54C802.64,143.03,802.12,143.05,801.82,142.88z"/>
		<path class="st7" d="M807.58,146.2l-3.73-2.15c-0.3-0.17-0.26-0.48,0.08-0.67l4.4-2.54c0.35-0.2,0.87-0.22,1.17-0.05l3.73,2.15
			c0.3,0.17,0.26,0.48-0.08,0.67l-4.4,2.54C808.4,146.35,807.88,146.37,807.58,146.2z"/>
		<path class="st7" d="M813.34,149.53l-3.73-2.15c-0.3-0.17-0.26-0.48,0.08-0.67l4.4-2.54c0.35-0.2,0.87-0.22,1.17-0.05l3.73,2.15
			c0.3,0.17,0.26,0.47-0.08,0.67l-4.4,2.54C814.16,149.68,813.64,149.7,813.34,149.53z"/>
		<path class="st7" d="M821.31,146.78l-3.73-2.15c-0.3-0.17-0.26-0.48,0.08-0.67l3.7-2.13c0.35-0.2,0.87-0.22,1.17-0.05l3.73,2.15
			c0.3,0.17,0.26,0.47-0.08,0.67l-3.7,2.13C822.13,146.93,821.61,146.95,821.31,146.78z"/>
		<path class="st7" d="M827.07,150.11l-3.73-2.15c-0.3-0.17-0.26-0.48,0.08-0.67l3.7-2.13c0.35-0.2,0.87-0.22,1.17-0.05l3.73,2.15
			c0.3,0.17,0.26,0.48-0.08,0.67l-3.7,2.13C827.89,150.26,827.37,150.28,827.07,150.11z"/>
		<path class="st7" d="M832.83,153.43l-3.73-2.15c-0.3-0.17-0.26-0.48,0.08-0.67l3.7-2.13c0.35-0.2,0.87-0.22,1.17-0.05l3.73,2.15
			c0.3,0.17,0.26,0.47-0.08,0.67l-3.7,2.13C833.65,153.58,833.13,153.61,832.83,153.43z"/>
		<path class="st7" d="M838.59,156.76l-3.73-2.15c-0.3-0.17-0.26-0.48,0.08-0.67l3.7-2.13c0.35-0.2,0.87-0.22,1.17-0.05l3.73,2.15
			c0.3,0.17,0.26,0.48-0.08,0.67l-3.7,2.13C839.41,156.91,838.89,156.93,838.59,156.76z"/>
		<path class="st7" d="M844.35,160.09l-3.73-2.15c-0.3-0.17-0.26-0.48,0.08-0.67l3.7-2.13c0.35-0.2,0.87-0.22,1.17-0.05l3.73,2.15
			c0.3,0.17,0.26,0.47-0.08,0.67l-3.7,2.13C845.17,160.24,844.65,160.26,844.35,160.09z"/>
		<path class="st7" d="M850.11,163.41l-3.73-2.15c-0.3-0.17-0.26-0.47,0.08-0.67l3.7-2.13c0.35-0.2,0.87-0.22,1.17-0.05l3.73,2.15
			c0.3,0.17,0.26,0.48-0.08,0.67l-3.7,2.13C850.94,163.56,850.41,163.58,850.11,163.41z"/>
		<path class="st7" d="M855.87,166.74l-3.73-2.15c-0.3-0.17-0.26-0.48,0.08-0.67l3.7-2.13c0.35-0.2,0.87-0.22,1.17-0.05l3.73,2.15
			c0.3,0.17,0.26,0.48-0.08,0.67l-3.7,2.13C856.7,166.89,856.17,166.91,855.87,166.74z"/>
		<path class="st7" d="M861.64,170.06l-3.73-2.15c-0.3-0.17-0.26-0.47,0.08-0.67l3.7-2.13c0.35-0.2,0.87-0.22,1.17-0.05l3.73,2.15
			c0.3,0.17,0.26,0.48-0.08,0.67l-3.7,2.13C862.46,170.22,861.93,170.24,861.64,170.06z"/>
		<path class="st7" d="M867.4,173.39l-3.73-2.15c-0.3-0.17-0.26-0.48,0.08-0.67l3.7-2.13c0.35-0.2,0.87-0.22,1.17-0.05l3.73,2.15
			c0.3,0.17,0.26,0.48-0.08,0.67l-3.7,2.13C868.22,173.54,867.7,173.56,867.4,173.39z"/>
		<path class="st7" d="M873.16,176.72l-3.73-2.15c-0.3-0.17-0.26-0.48,0.08-0.67l3.7-2.13c0.35-0.2,0.87-0.22,1.17-0.05l3.73,2.15
			c0.3,0.17,0.26,0.47-0.08,0.67l-3.7,2.13C873.98,176.87,873.46,176.89,873.16,176.72z"/>
		<path class="st7" d="M829.8,145.21l-3.73-2.15c-0.3-0.17-0.26-0.48,0.08-0.67l3.7-2.13c0.35-0.2,0.87-0.22,1.17-0.05l3.73,2.15
			c0.3,0.17,0.26,0.48-0.08,0.67l-3.7,2.13C830.62,145.36,830.1,145.38,829.8,145.21z"/>
		<path class="st7" d="M823.95,141.83l-3.73-2.15c-0.3-0.17-0.26-0.48,0.08-0.67l3.7-2.13c0.35-0.2,0.87-0.22,1.17-0.05l3.73,2.15
			c0.3,0.17,0.26,0.48-0.08,0.67l-3.7,2.13C824.77,141.98,824.25,142,823.95,141.83z"/>
		<path class="st7" d="M818.09,138.45l-8.03-4.64c-0.3-0.17-0.26-0.48,0.08-0.67l3.7-2.13c0.35-0.2,0.87-0.22,1.17-0.05l8.03,4.64
			c0.3,0.17,0.26,0.48-0.08,0.67l-3.7,2.13C818.91,138.6,818.39,138.62,818.09,138.45z"/>
		<path class="st7" d="M822.19,134.34l-6.52-3.76c-0.3-0.17-0.26-0.48,0.08-0.67l3.7-2.13c0.35-0.2,0.87-0.22,1.17-0.05l6.52,3.76
			c0.3,0.17,0.26,0.48-0.08,0.67l-3.7,2.13C823.01,134.49,822.49,134.51,822.19,134.34z"/>
		<path class="st7" d="M835.56,148.53l-3.73-2.15c-0.3-0.17-0.26-0.48,0.08-0.67l3.7-2.13c0.35-0.2,0.87-0.22,1.17-0.05l3.73,2.15
			c0.3,0.17,0.26,0.47-0.08,0.67l-3.7,2.13C836.38,148.68,835.86,148.71,835.56,148.53z"/>
		<path class="st7" d="M841.32,151.86l-3.73-2.15c-0.3-0.17-0.26-0.47,0.08-0.67l3.7-2.13c0.35-0.2,0.87-0.22,1.17-0.05l3.73,2.15
			c0.3,0.17,0.26,0.48-0.08,0.67l-3.7,2.13C842.14,152.01,841.62,152.03,841.32,151.86z"/>
		<path class="st7" d="M847.08,155.18l-3.73-2.15c-0.3-0.17-0.26-0.48,0.08-0.67l3.7-2.13c0.35-0.2,0.87-0.22,1.17-0.05l3.73,2.15
			c0.3,0.17,0.26,0.48-0.08,0.67l-3.7,2.13C847.9,155.34,847.38,155.36,847.08,155.18z"/>
		<path class="st7" d="M852.84,158.51l-3.73-2.15c-0.3-0.17-0.26-0.47,0.08-0.67l3.7-2.13c0.35-0.2,0.87-0.22,1.17-0.05l3.73,2.15
			c0.3,0.17,0.26,0.48-0.08,0.67l-3.7,2.13C853.66,158.66,853.14,158.68,852.84,158.51z"/>
		<path class="st7" d="M858.6,161.84l-3.73-2.15c-0.3-0.17-0.26-0.48,0.08-0.67l3.7-2.13c0.35-0.2,0.87-0.22,1.17-0.05l3.73,2.15
			c0.3,0.17,0.26,0.48-0.08,0.67l-3.7,2.13C859.42,161.99,858.9,162.01,858.6,161.84z"/>
		<path class="st7" d="M864.36,165.16l-3.73-2.15c-0.3-0.17-0.26-0.47,0.08-0.67l3.7-2.13c0.35-0.2,0.87-0.22,1.17-0.05l3.73,2.15
			c0.3,0.17,0.26,0.48-0.08,0.67l-3.7,2.13C865.19,165.31,864.66,165.34,864.36,165.16z"/>
		<path class="st7" d="M870.12,168.49l-3.73-2.15c-0.3-0.17-0.26-0.48,0.08-0.67l3.7-2.13c0.35-0.2,0.87-0.22,1.17-0.05l3.73,2.15
			c0.3,0.17,0.26,0.48-0.08,0.67l-3.7,2.13C870.95,168.64,870.42,168.66,870.12,168.49z"/>
		<path class="st7" d="M875.89,171.82l-3.73-2.15c-0.3-0.17-0.26-0.48,0.08-0.67l3.7-2.13c0.35-0.2,0.87-0.22,1.17-0.05l3.73,2.15
			c0.3,0.17,0.26,0.47-0.08,0.67l-3.7,2.13C876.71,171.97,876.18,171.99,875.89,171.82z"/>
		<path class="st7" d="M881.65,175.14l-3.73-2.15c-0.3-0.17-0.26-0.48,0.08-0.67l3.7-2.13c0.35-0.2,0.87-0.22,1.17-0.05l3.73,2.15
			c0.3,0.17,0.26,0.48-0.08,0.67l-3.7,2.13C882.47,175.29,881.95,175.31,881.65,175.14z"/>
		<path class="st7" d="M891.89,181.06l-8.14-4.7c-0.3-0.17-0.26-0.48,0.08-0.67l3.7-2.13c0.35-0.2,0.87-0.22,1.17-0.05l8.14,4.7
			c0.3,0.17,0.26,0.48-0.08,0.67l-3.7,2.13C892.71,181.21,892.19,181.23,891.89,181.06z"/>
		<path class="st7" d="M903.1,174.58l-6.87-3.97c-0.3-0.17-0.26-0.48,0.08-0.67l3.7-2.13c0.35-0.2,0.87-0.22,1.17-0.05l6.87,3.97
			c0.3,0.17,0.26,0.48-0.08,0.67l-3.7,2.13C903.93,174.73,903.4,174.75,903.1,174.58z"/>
		<path class="st7" d="M845.65,147.88l-3.73-2.15c-0.3-0.17-0.26-0.48,0.08-0.67l3.7-2.13c0.35-0.2,0.87-0.22,1.17-0.05l3.73,2.15
			c0.3,0.17,0.26,0.47-0.08,0.67l-3.7,2.13C846.47,148.03,845.95,148.05,845.65,147.88z"/>
		<path class="st7" d="M839.74,144.47l-3.73-2.15c-0.3-0.17-0.26-0.48,0.08-0.67l3.7-2.13c0.35-0.2,0.87-0.22,1.17-0.05l3.73,2.15
			c0.3,0.17,0.26,0.47-0.08,0.67l-3.7,2.13C840.56,144.62,840.04,144.65,839.74,144.47z"/>
		<path class="st7" d="M833.84,141.06l-3.73-2.15c-0.3-0.17-0.26-0.47,0.08-0.67l3.7-2.13c0.35-0.2,0.87-0.22,1.17-0.05l3.73,2.15
			c0.3,0.17,0.26,0.48-0.08,0.67l-3.7,2.13C834.66,141.21,834.14,141.24,833.84,141.06z"/>
		<path class="st7" d="M827.93,137.65l-3.73-2.15c-0.3-0.17-0.26-0.47,0.08-0.67l3.7-2.13c0.35-0.2,0.87-0.22,1.17-0.05l3.73,2.15
			c0.3,0.17,0.26,0.48-0.08,0.67l-3.7,2.13C828.76,137.81,828.23,137.83,827.93,137.65z"/>
		<path class="st7" d="M851.41,151.21l-3.73-2.15c-0.3-0.17-0.26-0.48,0.08-0.67l3.7-2.13c0.35-0.2,0.87-0.22,1.17-0.05l3.73,2.15
			c0.3,0.17,0.26,0.48-0.08,0.67l-3.7,2.13C852.23,151.36,851.71,151.38,851.41,151.21z"/>
		<path class="st7" d="M857.17,154.53l-3.73-2.15c-0.3-0.17-0.26-0.48,0.08-0.67l3.7-2.13c0.35-0.2,0.87-0.22,1.17-0.05l3.73,2.15
			c0.3,0.17,0.26,0.47-0.08,0.67l-3.7,2.13C857.99,154.69,857.47,154.71,857.17,154.53z"/>
		<path class="st7" d="M862.93,157.86l-3.73-2.15c-0.3-0.17-0.26-0.47,0.08-0.67l3.7-2.13c0.35-0.2,0.87-0.22,1.17-0.05l3.73,2.15
			c0.3,0.17,0.26,0.48-0.08,0.67l-3.7,2.13C863.75,158.01,863.23,158.03,862.93,157.86z"/>
		<path class="st7" d="M868.69,161.19l-3.73-2.15c-0.3-0.17-0.26-0.48,0.08-0.67l3.7-2.13c0.35-0.2,0.87-0.22,1.17-0.05l3.73,2.15
			c0.3,0.17,0.26,0.48-0.08,0.67l-3.7,2.13C869.51,161.34,868.99,161.36,868.69,161.19z"/>
		<path class="st7" d="M874.45,164.51l-3.73-2.15c-0.3-0.17-0.26-0.47,0.08-0.67l3.7-2.13c0.35-0.2,0.87-0.22,1.17-0.05l3.73,2.15
			c0.3,0.17,0.26,0.48-0.08,0.67l-3.7,2.13C875.27,164.66,874.75,164.69,874.45,164.51z"/>
		<path class="st7" d="M880.21,167.84l-3.73-2.15c-0.3-0.17-0.26-0.48,0.08-0.67l3.7-2.13c0.35-0.2,0.87-0.22,1.17-0.05l3.73,2.15
			c0.3,0.17,0.26,0.48-0.08,0.67l-3.7,2.13C881.04,167.99,880.51,168.01,880.21,167.84z"/>
		<path class="st7" d="M885.97,171.16l-3.73-2.15c-0.3-0.17-0.26-0.48,0.08-0.67l3.7-2.13c0.35-0.2,0.87-0.22,1.17-0.05l3.73,2.15
			c0.3,0.17,0.26,0.47-0.08,0.67l-3.7,2.13C886.8,171.32,886.27,171.34,885.97,171.16z"/>
		<path class="st7" d="M891.74,174.49l-3.73-2.15c-0.3-0.17-0.26-0.48,0.08-0.67l3.7-2.13c0.35-0.2,0.87-0.22,1.17-0.05l3.73,2.15
			c0.3,0.17,0.26,0.48-0.08,0.67l-3.7,2.13C892.56,174.64,892.03,174.66,891.74,174.49z"/>
		<path class="st7" d="M897.5,177.82l-3.73-2.15c-0.3-0.17-0.26-0.48,0.08-0.67l3.7-2.13c0.35-0.2,0.87-0.22,1.17-0.05l3.73,2.15
			c0.3,0.17,0.26,0.47-0.08,0.67l-3.7,2.13C898.32,177.97,897.8,177.99,897.5,177.82z"/>
		<path class="st7" d="M842.61,139.65l-3.73-2.15c-0.3-0.17-0.26-0.48,0.08-0.67l3.7-2.13c0.35-0.2,0.87-0.22,1.17-0.05l3.73,2.15
			c0.3,0.17,0.26,0.48-0.08,0.67l-3.7,2.13C843.44,139.81,842.91,139.83,842.61,139.65z"/>
		<path class="st7" d="M836.88,136.34l-3.73-2.15c-0.3-0.17-0.26-0.48,0.08-0.67l3.7-2.13c0.35-0.2,0.87-0.22,1.17-0.05l3.73,2.15
			c0.3,0.17,0.26,0.47-0.08,0.67l-3.7,2.13C837.7,136.5,837.18,136.52,836.88,136.34z"/>
		<path class="st7" d="M831.15,133.04l-3.73-2.15c-0.3-0.17-0.26-0.48,0.08-0.67l3.7-2.13c0.35-0.2,0.87-0.22,1.17-0.05l3.73,2.15
			c0.3,0.17,0.26,0.48-0.08,0.67l-3.7,2.13C831.97,133.19,831.45,133.21,831.15,133.04z"/>
		<path class="st7" d="M825.41,129.73l-3.73-2.15c-0.3-0.17-0.26-0.47,0.08-0.67l3.7-2.13c0.35-0.2,0.87-0.22,1.17-0.05l3.73,2.15
			c0.3,0.17,0.26,0.48-0.08,0.67l-3.7,2.13C826.24,129.88,825.71,129.9,825.41,129.73z"/>
		<path class="st7" d="M831.31,126.32l-3.73-2.15c-0.3-0.17-0.26-0.48,0.08-0.67l1.22-0.71c0.35-0.2,0.87-0.22,1.17-0.05l3.73,2.15
			c0.3,0.17,0.26,0.47-0.08,0.67l-1.22,0.71C832.13,126.47,831.61,126.5,831.31,126.32z"/>
		<path class="st7" d="M838.79,130.64l-3.73-2.15c-0.3-0.17-0.26-0.47,0.08-0.67l1.22-0.71c0.35-0.2,0.87-0.22,1.17-0.05l3.73,2.15
			c0.3,0.17,0.26,0.48-0.08,0.67l-1.22,0.71C839.61,130.79,839.09,130.81,838.79,130.64z"/>
		<path class="st7" d="M844.5,133.94l-3.73-2.15c-0.3-0.17-0.26-0.48,0.08-0.67l1.22-0.71c0.35-0.2,0.87-0.22,1.17-0.05l3.73,2.15
			c0.3,0.17,0.26,0.47-0.08,0.67l-1.22,0.71C845.32,134.09,844.8,134.11,844.5,133.94z"/>
		<path class="st7" d="M850.21,137.23l-3.73-2.15c-0.3-0.17-0.26-0.47,0.08-0.67l1.22-0.71c0.35-0.2,0.87-0.22,1.17-0.05l3.73,2.15
			c0.3,0.17,0.26,0.48-0.08,0.67l-1.22,0.71C851.03,137.38,850.51,137.41,850.21,137.23z"/>
		<path class="st7" d="M855.92,140.53l-3.73-2.15c-0.3-0.17-0.26-0.48,0.08-0.67l1.22-0.71c0.35-0.2,0.87-0.22,1.17-0.05l3.73,2.15
			c0.3,0.17,0.26,0.47-0.08,0.67l-1.22,0.71C856.74,140.68,856.22,140.7,855.92,140.53z"/>
		<path class="st7" d="M887.79,158.93l-3.73-2.15c-0.3-0.17-0.26-0.48,0.08-0.67l1.22-0.71c0.35-0.2,0.87-0.22,1.17-0.05l3.73,2.15
			c0.3,0.17,0.26,0.47-0.08,0.67l-1.22,0.71C888.61,159.08,888.09,159.1,887.79,158.93z"/>
		<path class="st7" d="M893.5,162.22l-3.73-2.15c-0.3-0.17-0.26-0.48,0.08-0.67l1.22-0.71c0.35-0.2,0.87-0.22,1.17-0.05l3.73,2.15
			c0.3,0.17,0.26,0.48-0.08,0.67l-1.22,0.71C894.32,162.38,893.79,162.4,893.5,162.22z"/>
		<path class="st7" d="M899.2,165.52l-3.73-2.15c-0.3-0.17-0.26-0.48,0.08-0.67l1.22-0.71c0.35-0.2,0.87-0.22,1.17-0.05l3.73,2.15
			c0.3,0.17,0.26,0.48-0.08,0.67l-1.22,0.71C900.03,165.67,899.5,165.69,899.2,165.52z"/>
		<path class="st7" d="M904.91,168.82l-3.73-2.15c-0.3-0.17-0.26-0.48,0.08-0.67l1.22-0.71c0.35-0.2,0.87-0.22,1.17-0.05l3.73,2.15
			c0.3,0.17,0.26,0.48-0.08,0.67l-1.22,0.71C905.74,168.97,905.21,168.99,904.91,168.82z"/>
		<path class="st7" d="M848.37,142.98l-3.73-2.15c-0.3-0.17-0.26-0.48,0.08-0.67l3.7-2.13c0.35-0.2,0.87-0.22,1.17-0.05l3.73,2.15
			c0.3,0.17,0.26,0.47-0.08,0.67l-3.7,2.13C849.2,143.13,848.67,143.15,848.37,142.98z"/>
		<path class="st7" d="M854.13,146.31l-3.73-2.15c-0.3-0.17-0.26-0.47,0.08-0.67l3.7-2.13c0.35-0.2,0.87-0.22,1.17-0.05l3.73,2.15
			c0.3,0.17,0.26,0.48-0.08,0.67l-3.7,2.13C854.96,146.46,854.43,146.48,854.13,146.31z"/>
		<path class="st7" d="M859.9,149.63l-3.73-2.15c-0.3-0.17-0.26-0.48,0.08-0.67l3.7-2.13c0.35-0.2,0.87-0.22,1.17-0.05l3.73,2.15
			c0.3,0.17,0.26,0.48-0.08,0.67l-3.7,2.13C860.72,149.78,860.2,149.81,859.9,149.63z"/>
		<path class="st7" d="M865.66,152.96l-3.73-2.15c-0.3-0.17-0.26-0.47,0.08-0.67l3.7-2.13c0.35-0.2,0.87-0.22,1.17-0.05l3.73,2.15
			c0.3,0.17,0.26,0.48-0.08,0.67l-3.7,2.13C866.48,153.11,865.96,153.13,865.66,152.96z"/>
		<path class="st7" d="M871.42,156.29l-3.73-2.15c-0.3-0.17-0.26-0.48,0.08-0.67l3.7-2.13c0.35-0.2,0.87-0.22,1.17-0.05l3.73,2.15
			c0.3,0.17,0.26,0.48-0.08,0.67l-3.7,2.13C872.24,156.44,871.72,156.46,871.42,156.29z"/>
		<path class="st7" d="M877.18,159.61l-3.73-2.15c-0.3-0.17-0.26-0.47,0.08-0.67l3.7-2.13c0.35-0.2,0.87-0.22,1.17-0.05l3.73,2.15
			c0.3,0.17,0.26,0.48-0.08,0.67l-3.7,2.13C878,159.76,877.48,159.78,877.18,159.61z"/>
		<path class="st7" d="M882.94,162.94l-3.73-2.15c-0.3-0.17-0.26-0.48,0.08-0.67l3.7-2.13c0.35-0.2,0.87-0.22,1.17-0.05l3.73,2.15
			c0.3,0.17,0.26,0.48-0.08,0.67l-3.7,2.13C883.76,163.09,883.24,163.11,882.94,162.94z"/>
		<path class="st7" d="M888.7,166.26l-3.73-2.15c-0.3-0.17-0.26-0.48,0.08-0.67l3.7-2.13c0.35-0.2,0.87-0.22,1.17-0.05l3.73,2.15
			c0.3,0.17,0.26,0.47-0.08,0.67l-3.7,2.13C889.52,166.42,889,166.44,888.7,166.26z"/>
		<path class="st7" d="M894.46,169.59l-3.73-2.15c-0.3-0.17-0.26-0.48,0.08-0.67l3.7-2.13c0.35-0.2,0.87-0.22,1.17-0.05l3.73,2.15
			c0.3,0.17,0.26,0.48-0.08,0.67l-3.7,2.13C895.29,169.74,894.76,169.76,894.46,169.59z"/>
		<path class="st7" d="M815.44,143.39l-10.99-6.34c-0.3-0.17-0.26-0.47,0.08-0.67l3.7-2.13c0.35-0.2,0.87-0.22,1.17-0.05l10.99,6.34
			c0.3,0.17,0.26,0.48-0.08,0.67l-3.7,2.13C816.26,143.54,815.74,143.56,815.44,143.39z"/>
		<path class="st7" d="M886.21,184.25l-10.99-6.34c-0.3-0.17-0.26-0.48,0.08-0.67l3.7-2.13c0.35-0.2,0.87-0.22,1.17-0.05l10.99,6.34
			c0.3,0.17,0.26,0.48-0.08,0.67l-3.7,2.13C887.04,184.41,886.51,184.43,886.21,184.25z"/>
		<path class="st7" d="M863.17,178.3l-3.73-2.15c-0.3-0.17-0.26-0.48,0.08-0.67l4.4-2.54c0.35-0.2,0.87-0.22,1.17-0.05l3.73,2.15
			c0.3,0.17,0.26,0.48-0.08,0.67l-4.4,2.54C864,178.45,863.47,178.47,863.17,178.3z"/>
		<path class="st7" d="M821.34,154.14l-5.97-3.44c-0.3-0.17-0.26-0.47,0.08-0.67l4.4-2.54c0.35-0.2,0.87-0.22,1.17-0.05l5.97,3.44
			c0.3,0.17,0.26,0.48-0.08,0.67l-4.4,2.54C822.16,154.3,821.64,154.32,821.34,154.14z"/>
		<path class="st7" d="M857.62,175.09l-5.97-3.44c-0.3-0.17-0.26-0.47,0.08-0.67l4.4-2.54c0.35-0.2,0.87-0.22,1.17-0.05l5.97,3.44
			c0.3,0.17,0.26,0.47-0.08,0.67l-4.4,2.54C858.45,175.25,857.92,175.27,857.62,175.09z"/>
		<path class="st7" d="M829.65,158.94l-5.97-3.44c-0.3-0.17-0.26-0.48,0.08-0.67l4.4-2.54c0.35-0.2,0.87-0.22,1.17-0.05l5.97,3.44
			c0.3,0.17,0.26,0.48-0.08,0.67l-4.4,2.54C830.47,159.09,829.95,159.12,829.65,158.94z"/>
		<path class="st7" d="M829.38,152.26l25.94,14.98c0.32,0.19,0.32,0.49,0,0.67l-4.49,2.59c-0.32,0.19-0.84,0.19-1.17,0l-25.94-14.98
			L829.38,152.26z"/>
		<path class="st7" d="M879.28,184.33l4.16,2.4c0.25,0.14,0.21,0.39-0.07,0.55l-1.8,1.04c-0.28,0.16-0.71,0.18-0.96,0.04l-4.16-2.4
			c-0.25-0.14-0.21-0.39,0.07-0.55l1.8-1.04C878.6,184.21,879.03,184.19,879.28,184.33z"/>
		<path class="st7" d="M873.47,180.98l4.16,2.4c0.25,0.14,0.21,0.39-0.07,0.55l-1.8,1.04c-0.28,0.16-0.71,0.18-0.96,0.04l-4.16-2.4
			c-0.25-0.14-0.21-0.39,0.07-0.55l1.8-1.04C872.79,180.85,873.22,180.83,873.47,180.98z"/>
		<path class="st7" d="M867.71,177.65l4.16,2.4c0.25,0.14,0.21,0.39-0.07,0.55l-1.8,1.04c-0.28,0.16-0.71,0.18-0.96,0.04l-4.16-2.4
			c-0.25-0.14-0.21-0.39,0.07-0.55l1.8-1.04C867.03,177.53,867.46,177.51,867.71,177.65z"/>
		<path class="st7" d="M876.65,179.14l4.16,2.4c0.25,0.14,0.21,0.39-0.07,0.55l-1.8,1.04c-0.28,0.16-0.71,0.18-0.96,0.04l-4.16-2.4
			c-0.25-0.14-0.21-0.39,0.07-0.55l1.8-1.04C875.97,179.02,876.4,179,876.65,179.14z"/>
	</g>
	<g class="st6">
		<path class="st7" d="M801.82,142.88l-3.73-2.15c-0.3-0.17-0.26-0.48,0.08-0.67l4.4-2.54c0.35-0.2,0.87-0.22,1.17-0.05l3.73,2.15
			c0.3,0.17,0.26,0.47-0.08,0.67l-4.4,2.54C802.64,143.03,802.12,143.05,801.82,142.88z"/>
		<path class="st7" d="M807.58,146.2l-3.73-2.15c-0.3-0.17-0.26-0.48,0.08-0.67l4.4-2.54c0.35-0.2,0.87-0.22,1.17-0.05l3.73,2.15
			c0.3,0.17,0.26,0.48-0.08,0.67l-4.4,2.54C808.4,146.35,807.88,146.37,807.58,146.2z"/>
		<path class="st7" d="M813.34,149.53l-3.73-2.15c-0.3-0.17-0.26-0.48,0.08-0.67l4.4-2.54c0.35-0.2,0.87-0.22,1.17-0.05l3.73,2.15
			c0.3,0.17,0.26,0.47-0.08,0.67l-4.4,2.54C814.16,149.68,813.64,149.7,813.34,149.53z"/>
		<path class="st7" d="M821.31,146.78l-3.73-2.15c-0.3-0.17-0.26-0.48,0.08-0.67l3.7-2.13c0.35-0.2,0.87-0.22,1.17-0.05l3.73,2.15
			c0.3,0.17,0.26,0.47-0.08,0.67l-3.7,2.13C822.13,146.93,821.61,146.95,821.31,146.78z"/>
		<path class="st7" d="M827.07,150.11l-3.73-2.15c-0.3-0.17-0.26-0.48,0.08-0.67l3.7-2.13c0.35-0.2,0.87-0.22,1.17-0.05l3.73,2.15
			c0.3,0.17,0.26,0.48-0.08,0.67l-3.7,2.13C827.89,150.26,827.37,150.28,827.07,150.11z"/>
		<path class="st7" d="M832.83,153.43l-3.73-2.15c-0.3-0.17-0.26-0.48,0.08-0.67l3.7-2.13c0.35-0.2,0.87-0.22,1.17-0.05l3.73,2.15
			c0.3,0.17,0.26,0.47-0.08,0.67l-3.7,2.13C833.65,153.58,833.13,153.61,832.83,153.43z"/>
		<path class="st7" d="M838.59,156.76l-3.73-2.15c-0.3-0.17-0.26-0.48,0.08-0.67l3.7-2.13c0.35-0.2,0.87-0.22,1.17-0.05l3.73,2.15
			c0.3,0.17,0.26,0.48-0.08,0.67l-3.7,2.13C839.41,156.91,838.89,156.93,838.59,156.76z"/>
		<path class="st7" d="M844.35,160.09l-3.73-2.15c-0.3-0.17-0.26-0.48,0.08-0.67l3.7-2.13c0.35-0.2,0.87-0.22,1.17-0.05l3.73,2.15
			c0.3,0.17,0.26,0.47-0.08,0.67l-3.7,2.13C845.17,160.24,844.65,160.26,844.35,160.09z"/>
		<path class="st7" d="M850.11,163.41l-3.73-2.15c-0.3-0.17-0.26-0.47,0.08-0.67l3.7-2.13c0.35-0.2,0.87-0.22,1.17-0.05l3.73,2.15
			c0.3,0.17,0.26,0.48-0.08,0.67l-3.7,2.13C850.94,163.56,850.41,163.58,850.11,163.41z"/>
		<path class="st7" d="M855.87,166.74l-3.73-2.15c-0.3-0.17-0.26-0.48,0.08-0.67l3.7-2.13c0.35-0.2,0.87-0.22,1.17-0.05l3.73,2.15
			c0.3,0.17,0.26,0.48-0.08,0.67l-3.7,2.13C856.7,166.89,856.17,166.91,855.87,166.74z"/>
		<path class="st7" d="M861.64,170.06l-3.73-2.15c-0.3-0.17-0.26-0.47,0.08-0.67l3.7-2.13c0.35-0.2,0.87-0.22,1.17-0.05l3.73,2.15
			c0.3,0.17,0.26,0.48-0.08,0.67l-3.7,2.13C862.46,170.22,861.93,170.24,861.64,170.06z"/>
		<path class="st7" d="M867.4,173.39l-3.73-2.15c-0.3-0.17-0.26-0.48,0.08-0.67l3.7-2.13c0.35-0.2,0.87-0.22,1.17-0.05l3.73,2.15
			c0.3,0.17,0.26,0.48-0.08,0.67l-3.7,2.13C868.22,173.54,867.7,173.56,867.4,173.39z"/>
		<path class="st7" d="M873.16,176.72l-3.73-2.15c-0.3-0.17-0.26-0.48,0.08-0.67l3.7-2.13c0.35-0.2,0.87-0.22,1.17-0.05l3.73,2.15
			c0.3,0.17,0.26,0.47-0.08,0.67l-3.7,2.13C873.98,176.87,873.46,176.89,873.16,176.72z"/>
		<path class="st7" d="M829.8,145.21l-3.73-2.15c-0.3-0.17-0.26-0.48,0.08-0.67l3.7-2.13c0.35-0.2,0.87-0.22,1.17-0.05l3.73,2.15
			c0.3,0.17,0.26,0.48-0.08,0.67l-3.7,2.13C830.62,145.36,830.1,145.38,829.8,145.21z"/>
		<path class="st7" d="M823.95,141.83l-3.73-2.15c-0.3-0.17-0.26-0.48,0.08-0.67l3.7-2.13c0.35-0.2,0.87-0.22,1.17-0.05l3.73,2.15
			c0.3,0.17,0.26,0.48-0.08,0.67l-3.7,2.13C824.77,141.98,824.25,142,823.95,141.83z"/>
		<path class="st7" d="M818.09,138.45l-8.03-4.64c-0.3-0.17-0.26-0.48,0.08-0.67l3.7-2.13c0.35-0.2,0.87-0.22,1.17-0.05l8.03,4.64
			c0.3,0.17,0.26,0.48-0.08,0.67l-3.7,2.13C818.91,138.6,818.39,138.62,818.09,138.45z"/>
		<path class="st7" d="M822.19,134.34l-6.52-3.76c-0.3-0.17-0.26-0.48,0.08-0.67l3.7-2.13c0.35-0.2,0.87-0.22,1.17-0.05l6.52,3.76
			c0.3,0.17,0.26,0.48-0.08,0.67l-3.7,2.13C823.01,134.49,822.49,134.51,822.19,134.34z"/>
		<path class="st7" d="M835.56,148.53l-3.73-2.15c-0.3-0.17-0.26-0.48,0.08-0.67l3.7-2.13c0.35-0.2,0.87-0.22,1.17-0.05l3.73,2.15
			c0.3,0.17,0.26,0.47-0.08,0.67l-3.7,2.13C836.38,148.68,835.86,148.71,835.56,148.53z"/>
		<path class="st7" d="M841.32,151.86l-3.73-2.15c-0.3-0.17-0.26-0.47,0.08-0.67l3.7-2.13c0.35-0.2,0.87-0.22,1.17-0.05l3.73,2.15
			c0.3,0.17,0.26,0.48-0.08,0.67l-3.7,2.13C842.14,152.01,841.62,152.03,841.32,151.86z"/>
		<path class="st7" d="M847.08,155.18l-3.73-2.15c-0.3-0.17-0.26-0.48,0.08-0.67l3.7-2.13c0.35-0.2,0.87-0.22,1.17-0.05l3.73,2.15
			c0.3,0.17,0.26,0.48-0.08,0.67l-3.7,2.13C847.9,155.34,847.38,155.36,847.08,155.18z"/>
		<path class="st7" d="M852.84,158.51l-3.73-2.15c-0.3-0.17-0.26-0.47,0.08-0.67l3.7-2.13c0.35-0.2,0.87-0.22,1.17-0.05l3.73,2.15
			c0.3,0.17,0.26,0.48-0.08,0.67l-3.7,2.13C853.66,158.66,853.14,158.68,852.84,158.51z"/>
		<path class="st7" d="M858.6,161.84l-3.73-2.15c-0.3-0.17-0.26-0.48,0.08-0.67l3.7-2.13c0.35-0.2,0.87-0.22,1.17-0.05l3.73,2.15
			c0.3,0.17,0.26,0.48-0.08,0.67l-3.7,2.13C859.42,161.99,858.9,162.01,858.6,161.84z"/>
		<path class="st7" d="M864.36,165.16l-3.73-2.15c-0.3-0.17-0.26-0.47,0.08-0.67l3.7-2.13c0.35-0.2,0.87-0.22,1.17-0.05l3.73,2.15
			c0.3,0.17,0.26,0.48-0.08,0.67l-3.7,2.13C865.19,165.31,864.66,165.34,864.36,165.16z"/>
		<path class="st7" d="M870.12,168.49l-3.73-2.15c-0.3-0.17-0.26-0.48,0.08-0.67l3.7-2.13c0.35-0.2,0.87-0.22,1.17-0.05l3.73,2.15
			c0.3,0.17,0.26,0.48-0.08,0.67l-3.7,2.13C870.95,168.64,870.42,168.66,870.12,168.49z"/>
		<path class="st7" d="M875.89,171.82l-3.73-2.15c-0.3-0.17-0.26-0.48,0.08-0.67l3.7-2.13c0.35-0.2,0.87-0.22,1.17-0.05l3.73,2.15
			c0.3,0.17,0.26,0.47-0.08,0.67l-3.7,2.13C876.71,171.97,876.18,171.99,875.89,171.82z"/>
		<path class="st7" d="M881.65,175.14l-3.73-2.15c-0.3-0.17-0.26-0.48,0.08-0.67l3.7-2.13c0.35-0.2,0.87-0.22,1.17-0.05l3.73,2.15
			c0.3,0.17,0.26,0.48-0.08,0.67l-3.7,2.13C882.47,175.29,881.95,175.31,881.65,175.14z"/>
		<path class="st7" d="M891.89,181.06l-8.14-4.7c-0.3-0.17-0.26-0.48,0.08-0.67l3.7-2.13c0.35-0.2,0.87-0.22,1.17-0.05l8.14,4.7
			c0.3,0.17,0.26,0.48-0.08,0.67l-3.7,2.13C892.71,181.21,892.19,181.23,891.89,181.06z"/>
		<path class="st7" d="M903.1,174.58l-6.87-3.97c-0.3-0.17-0.26-0.48,0.08-0.67l3.7-2.13c0.35-0.2,0.87-0.22,1.17-0.05l6.87,3.97
			c0.3,0.17,0.26,0.48-0.08,0.67l-3.7,2.13C903.93,174.73,903.4,174.75,903.1,174.58z"/>
		<path class="st7" d="M845.65,147.88l-3.73-2.15c-0.3-0.17-0.26-0.48,0.08-0.67l3.7-2.13c0.35-0.2,0.87-0.22,1.17-0.05l3.73,2.15
			c0.3,0.17,0.26,0.47-0.08,0.67l-3.7,2.13C846.47,148.03,845.95,148.05,845.65,147.88z"/>
		<path class="st7" d="M839.74,144.47l-3.73-2.15c-0.3-0.17-0.26-0.48,0.08-0.67l3.7-2.13c0.35-0.2,0.87-0.22,1.17-0.05l3.73,2.15
			c0.3,0.17,0.26,0.47-0.08,0.67l-3.7,2.13C840.56,144.62,840.04,144.65,839.74,144.47z"/>
		<path class="st7" d="M833.84,141.06l-3.73-2.15c-0.3-0.17-0.26-0.47,0.08-0.67l3.7-2.13c0.35-0.2,0.87-0.22,1.17-0.05l3.73,2.15
			c0.3,0.17,0.26,0.48-0.08,0.67l-3.7,2.13C834.66,141.21,834.14,141.24,833.84,141.06z"/>
		<path class="st7" d="M827.93,137.65l-3.73-2.15c-0.3-0.17-0.26-0.47,0.08-0.67l3.7-2.13c0.35-0.2,0.87-0.22,1.17-0.05l3.73,2.15
			c0.3,0.17,0.26,0.48-0.08,0.67l-3.7,2.13C828.76,137.81,828.23,137.83,827.93,137.65z"/>
		<path class="st7" d="M851.41,151.21l-3.73-2.15c-0.3-0.17-0.26-0.48,0.08-0.67l3.7-2.13c0.35-0.2,0.87-0.22,1.17-0.05l3.73,2.15
			c0.3,0.17,0.26,0.48-0.08,0.67l-3.7,2.13C852.23,151.36,851.71,151.38,851.41,151.21z"/>
		<path class="st7" d="M857.17,154.53l-3.73-2.15c-0.3-0.17-0.26-0.48,0.08-0.67l3.7-2.13c0.35-0.2,0.87-0.22,1.17-0.05l3.73,2.15
			c0.3,0.17,0.26,0.47-0.08,0.67l-3.7,2.13C857.99,154.69,857.47,154.71,857.17,154.53z"/>
		<path class="st7" d="M862.93,157.86l-3.73-2.15c-0.3-0.17-0.26-0.47,0.08-0.67l3.7-2.13c0.35-0.2,0.87-0.22,1.17-0.05l3.73,2.15
			c0.3,0.17,0.26,0.48-0.08,0.67l-3.7,2.13C863.75,158.01,863.23,158.03,862.93,157.86z"/>
		<path class="st7" d="M868.69,161.19l-3.73-2.15c-0.3-0.17-0.26-0.48,0.08-0.67l3.7-2.13c0.35-0.2,0.87-0.22,1.17-0.05l3.73,2.15
			c0.3,0.17,0.26,0.48-0.08,0.67l-3.7,2.13C869.51,161.34,868.99,161.36,868.69,161.19z"/>
		<path class="st7" d="M874.45,164.51l-3.73-2.15c-0.3-0.17-0.26-0.47,0.08-0.67l3.7-2.13c0.35-0.2,0.87-0.22,1.17-0.05l3.73,2.15
			c0.3,0.17,0.26,0.48-0.08,0.67l-3.7,2.13C875.27,164.66,874.75,164.69,874.45,164.51z"/>
		<path class="st7" d="M880.21,167.84l-3.73-2.15c-0.3-0.17-0.26-0.48,0.08-0.67l3.7-2.13c0.35-0.2,0.87-0.22,1.17-0.05l3.73,2.15
			c0.3,0.17,0.26,0.48-0.08,0.67l-3.7,2.13C881.04,167.99,880.51,168.01,880.21,167.84z"/>
		<path class="st7" d="M885.97,171.16l-3.73-2.15c-0.3-0.17-0.26-0.48,0.08-0.67l3.7-2.13c0.35-0.2,0.87-0.22,1.17-0.05l3.73,2.15
			c0.3,0.17,0.26,0.47-0.08,0.67l-3.7,2.13C886.8,171.32,886.27,171.34,885.97,171.16z"/>
		<path class="st7" d="M891.74,174.49l-3.73-2.15c-0.3-0.17-0.26-0.48,0.08-0.67l3.7-2.13c0.35-0.2,0.87-0.22,1.17-0.05l3.73,2.15
			c0.3,0.17,0.26,0.48-0.08,0.67l-3.7,2.13C892.56,174.64,892.03,174.66,891.74,174.49z"/>
		<path class="st7" d="M897.5,177.82l-3.73-2.15c-0.3-0.17-0.26-0.48,0.08-0.67l3.7-2.13c0.35-0.2,0.87-0.22,1.17-0.05l3.73,2.15
			c0.3,0.17,0.26,0.47-0.08,0.67l-3.7,2.13C898.32,177.97,897.8,177.99,897.5,177.82z"/>
		<path class="st7" d="M842.61,139.65l-3.73-2.15c-0.3-0.17-0.26-0.48,0.08-0.67l3.7-2.13c0.35-0.2,0.87-0.22,1.17-0.05l3.73,2.15
			c0.3,0.17,0.26,0.48-0.08,0.67l-3.7,2.13C843.44,139.81,842.91,139.83,842.61,139.65z"/>
		<path class="st7" d="M836.88,136.34l-3.73-2.15c-0.3-0.17-0.26-0.48,0.08-0.67l3.7-2.13c0.35-0.2,0.87-0.22,1.17-0.05l3.73,2.15
			c0.3,0.17,0.26,0.47-0.08,0.67l-3.7,2.13C837.7,136.5,837.18,136.52,836.88,136.34z"/>
		<path class="st7" d="M831.15,133.04l-3.73-2.15c-0.3-0.17-0.26-0.48,0.08-0.67l3.7-2.13c0.35-0.2,0.87-0.22,1.17-0.05l3.73,2.15
			c0.3,0.17,0.26,0.48-0.08,0.67l-3.7,2.13C831.97,133.19,831.45,133.21,831.15,133.04z"/>
		<path class="st7" d="M825.41,129.73l-3.73-2.15c-0.3-0.17-0.26-0.47,0.08-0.67l3.7-2.13c0.35-0.2,0.87-0.22,1.17-0.05l3.73,2.15
			c0.3,0.17,0.26,0.48-0.08,0.67l-3.7,2.13C826.24,129.88,825.71,129.9,825.41,129.73z"/>
		<path class="st7" d="M831.31,126.32l-3.73-2.15c-0.3-0.17-0.26-0.48,0.08-0.67l1.22-0.71c0.35-0.2,0.87-0.22,1.17-0.05l3.73,2.15
			c0.3,0.17,0.26,0.47-0.08,0.67l-1.22,0.71C832.13,126.47,831.61,126.5,831.31,126.32z"/>
		<path class="st7" d="M838.79,130.64l-3.73-2.15c-0.3-0.17-0.26-0.47,0.08-0.67l1.22-0.71c0.35-0.2,0.87-0.22,1.17-0.05l3.73,2.15
			c0.3,0.17,0.26,0.48-0.08,0.67l-1.22,0.71C839.61,130.79,839.09,130.81,838.79,130.64z"/>
		<path class="st7" d="M844.5,133.94l-3.73-2.15c-0.3-0.17-0.26-0.48,0.08-0.67l1.22-0.71c0.35-0.2,0.87-0.22,1.17-0.05l3.73,2.15
			c0.3,0.17,0.26,0.47-0.08,0.67l-1.22,0.71C845.32,134.09,844.8,134.11,844.5,133.94z"/>
		<path class="st7" d="M850.21,137.23l-3.73-2.15c-0.3-0.17-0.26-0.47,0.08-0.67l1.22-0.71c0.35-0.2,0.87-0.22,1.17-0.05l3.73,2.15
			c0.3,0.17,0.26,0.48-0.08,0.67l-1.22,0.71C851.03,137.38,850.51,137.41,850.21,137.23z"/>
		<path class="st7" d="M855.92,140.53l-3.73-2.15c-0.3-0.17-0.26-0.48,0.08-0.67l1.22-0.71c0.35-0.2,0.87-0.22,1.17-0.05l3.73,2.15
			c0.3,0.17,0.26,0.47-0.08,0.67l-1.22,0.71C856.74,140.68,856.22,140.7,855.92,140.53z"/>
		<path class="st7" d="M887.79,158.93l-3.73-2.15c-0.3-0.17-0.26-0.48,0.08-0.67l1.22-0.71c0.35-0.2,0.87-0.22,1.17-0.05l3.73,2.15
			c0.3,0.17,0.26,0.47-0.08,0.67l-1.22,0.71C888.61,159.08,888.09,159.1,887.79,158.93z"/>
		<path class="st7" d="M893.5,162.22l-3.73-2.15c-0.3-0.17-0.26-0.48,0.08-0.67l1.22-0.71c0.35-0.2,0.87-0.22,1.17-0.05l3.73,2.15
			c0.3,0.17,0.26,0.48-0.08,0.67l-1.22,0.71C894.32,162.38,893.79,162.4,893.5,162.22z"/>
		<path class="st7" d="M899.2,165.52l-3.73-2.15c-0.3-0.17-0.26-0.48,0.08-0.67l1.22-0.71c0.35-0.2,0.87-0.22,1.17-0.05l3.73,2.15
			c0.3,0.17,0.26,0.48-0.08,0.67l-1.22,0.71C900.03,165.67,899.5,165.69,899.2,165.52z"/>
		<path class="st7" d="M904.91,168.82l-3.73-2.15c-0.3-0.17-0.26-0.48,0.08-0.67l1.22-0.71c0.35-0.2,0.87-0.22,1.17-0.05l3.73,2.15
			c0.3,0.17,0.26,0.48-0.08,0.67l-1.22,0.71C905.74,168.97,905.21,168.99,904.91,168.82z"/>
		<path class="st7" d="M848.37,142.98l-3.73-2.15c-0.3-0.17-0.26-0.48,0.08-0.67l3.7-2.13c0.35-0.2,0.87-0.22,1.17-0.05l3.73,2.15
			c0.3,0.17,0.26,0.47-0.08,0.67l-3.7,2.13C849.2,143.13,848.67,143.15,848.37,142.98z"/>
		<path class="st7" d="M854.13,146.31l-3.73-2.15c-0.3-0.17-0.26-0.47,0.08-0.67l3.7-2.13c0.35-0.2,0.87-0.22,1.17-0.05l3.73,2.15
			c0.3,0.17,0.26,0.48-0.08,0.67l-3.7,2.13C854.96,146.46,854.43,146.48,854.13,146.31z"/>
		<path class="st7" d="M859.9,149.63l-3.73-2.15c-0.3-0.17-0.26-0.48,0.08-0.67l3.7-2.13c0.35-0.2,0.87-0.22,1.17-0.05l3.73,2.15
			c0.3,0.17,0.26,0.48-0.08,0.67l-3.7,2.13C860.72,149.78,860.2,149.81,859.9,149.63z"/>
		<path class="st7" d="M865.66,152.96l-3.73-2.15c-0.3-0.17-0.26-0.47,0.08-0.67l3.7-2.13c0.35-0.2,0.87-0.22,1.17-0.05l3.73,2.15
			c0.3,0.17,0.26,0.48-0.08,0.67l-3.7,2.13C866.48,153.11,865.96,153.13,865.66,152.96z"/>
		<path class="st7" d="M871.42,156.29l-3.73-2.15c-0.3-0.17-0.26-0.48,0.08-0.67l3.7-2.13c0.35-0.2,0.87-0.22,1.17-0.05l3.73,2.15
			c0.3,0.17,0.26,0.48-0.08,0.67l-3.7,2.13C872.24,156.44,871.72,156.46,871.42,156.29z"/>
		<path class="st7" d="M877.18,159.61l-3.73-2.15c-0.3-0.17-0.26-0.47,0.08-0.67l3.7-2.13c0.35-0.2,0.87-0.22,1.17-0.05l3.73,2.15
			c0.3,0.17,0.26,0.48-0.08,0.67l-3.7,2.13C878,159.76,877.48,159.78,877.18,159.61z"/>
		<path class="st7" d="M882.94,162.94l-3.73-2.15c-0.3-0.17-0.26-0.48,0.08-0.67l3.7-2.13c0.35-0.2,0.87-0.22,1.17-0.05l3.73,2.15
			c0.3,0.17,0.26,0.48-0.08,0.67l-3.7,2.13C883.76,163.09,883.24,163.11,882.94,162.94z"/>
		<path class="st7" d="M888.7,166.26l-3.73-2.15c-0.3-0.17-0.26-0.48,0.08-0.67l3.7-2.13c0.35-0.2,0.87-0.22,1.17-0.05l3.73,2.15
			c0.3,0.17,0.26,0.47-0.08,0.67l-3.7,2.13C889.52,166.42,889,166.44,888.7,166.26z"/>
		<path class="st7" d="M894.46,169.59l-3.73-2.15c-0.3-0.17-0.26-0.48,0.08-0.67l3.7-2.13c0.35-0.2,0.87-0.22,1.17-0.05l3.73,2.15
			c0.3,0.17,0.26,0.48-0.08,0.67l-3.7,2.13C895.29,169.74,894.76,169.76,894.46,169.59z"/>
		<path class="st7" d="M815.44,143.39l-10.99-6.34c-0.3-0.17-0.26-0.47,0.08-0.67l3.7-2.13c0.35-0.2,0.87-0.22,1.17-0.05l10.99,6.34
			c0.3,0.17,0.26,0.48-0.08,0.67l-3.7,2.13C816.26,143.54,815.74,143.56,815.44,143.39z"/>
		<path class="st7" d="M886.21,184.25l-10.99-6.34c-0.3-0.17-0.26-0.48,0.08-0.67l3.7-2.13c0.35-0.2,0.87-0.22,1.17-0.05l10.99,6.34
			c0.3,0.17,0.26,0.48-0.08,0.67l-3.7,2.13C887.04,184.41,886.51,184.43,886.21,184.25z"/>
		<path class="st7" d="M863.17,178.3l-3.73-2.15c-0.3-0.17-0.26-0.48,0.08-0.67l4.4-2.54c0.35-0.2,0.87-0.22,1.17-0.05l3.73,2.15
			c0.3,0.17,0.26,0.48-0.08,0.67l-4.4,2.54C864,178.45,863.47,178.47,863.17,178.3z"/>
		<path class="st7" d="M821.34,154.14l-5.97-3.44c-0.3-0.17-0.26-0.47,0.08-0.67l4.4-2.54c0.35-0.2,0.87-0.22,1.17-0.05l5.97,3.44
			c0.3,0.17,0.26,0.48-0.08,0.67l-4.4,2.54C822.16,154.3,821.64,154.32,821.34,154.14z"/>
		<path class="st7" d="M857.62,175.09l-5.97-3.44c-0.3-0.17-0.26-0.47,0.08-0.67l4.4-2.54c0.35-0.2,0.87-0.22,1.17-0.05l5.97,3.44
			c0.3,0.17,0.26,0.47-0.08,0.67l-4.4,2.54C858.45,175.25,857.92,175.27,857.62,175.09z"/>
		<path class="st7" d="M829.65,158.94l-5.97-3.44c-0.3-0.17-0.26-0.48,0.08-0.67l4.4-2.54c0.35-0.2,0.87-0.22,1.17-0.05l5.97,3.44
			c0.3,0.17,0.26,0.48-0.08,0.67l-4.4,2.54C830.47,159.09,829.95,159.12,829.65,158.94z"/>
		<path class="st7" d="M829.38,152.26l25.94,14.98c0.32,0.19,0.32,0.49,0,0.67l-4.49,2.59c-0.32,0.19-0.84,0.19-1.17,0l-25.94-14.98
			L829.38,152.26z"/>
		<path class="st7" d="M879.28,184.33l4.16,2.4c0.25,0.14,0.21,0.39-0.07,0.55l-1.8,1.04c-0.28,0.16-0.71,0.18-0.96,0.04l-4.16-2.4
			c-0.25-0.14-0.21-0.39,0.07-0.55l1.8-1.04C878.6,184.21,879.03,184.19,879.28,184.33z"/>
		<path class="st7" d="M873.47,180.98l4.16,2.4c0.25,0.14,0.21,0.39-0.07,0.55l-1.8,1.04c-0.28,0.16-0.71,0.18-0.96,0.04l-4.16-2.4
			c-0.25-0.14-0.21-0.39,0.07-0.55l1.8-1.04C872.79,180.85,873.22,180.83,873.47,180.98z"/>
		<path class="st7" d="M867.71,177.65l4.16,2.4c0.25,0.14,0.21,0.39-0.07,0.55l-1.8,1.04c-0.28,0.16-0.71,0.18-0.96,0.04l-4.16-2.4
			c-0.25-0.14-0.21-0.39,0.07-0.55l1.8-1.04C867.03,177.53,867.46,177.51,867.71,177.65z"/>
		<path class="st7" d="M876.65,179.14l4.16,2.4c0.25,0.14,0.21,0.39-0.07,0.55l-1.8,1.04c-0.28,0.16-0.71,0.18-0.96,0.04l-4.16-2.4
			c-0.25-0.14-0.21-0.39,0.07-0.55l1.8-1.04C875.97,179.02,876.4,179,876.65,179.14z"/>
	</g>
	
		<radialGradient id="SVGID_00000134955237481259602960000014933861461374273416_" cx="808.9296" cy="51.7818" r="170.8703" gradientUnits="userSpaceOnUse">
		<stop  offset="0" style="stop-color:#E39A65"/>
		<stop  offset="0.4742" style="stop-color:#A92FFB"/>
		<stop  offset="0.5875" style="stop-color:#891CFB"/>
		<stop  offset="0.7262" style="stop-color:#6507FA"/>
		<stop  offset="1" style="stop-color:#3919BB"/>
	</radialGradient>
	<path style="fill:url(#SVGID_00000134955237481259602960000014933861461374273416_);" d="M937.62,172.41l-110.06-63.55
		c-1.73-1-2.63-3.43-2.02-5.44l24.89-80.81c0.62-2,2.52-2.82,4.25-1.82l110.06,63.55c1.73,1,2.63,3.43,2.02,5.44l-24.89,80.81
		C941.25,172.6,939.35,173.41,937.62,172.41z"/>
	
		<linearGradient id="SVGID_00000129166351130845145570000005802597590258464399_" gradientUnits="userSpaceOnUse" x1="827.7101" y1="96.6356" x2="964.631" y2="96.6356">
		<stop  offset="0" style="stop-color:#3919BB"/>
		<stop  offset="1" style="stop-color:#6507FA"/>
	</linearGradient>
	<path style="fill:url(#SVGID_00000129166351130845145570000005802597590258464399_);" d="M936.58,169.58l-106.76-61.69
		c-1.66-0.96-2.52-3.29-1.93-5.2l23.8-77.26c0.59-1.92,2.41-2.7,4.07-1.74l106.76,61.69c1.66,0.96,2.52,3.29,1.93,5.2l-23.8,77.26
		C940.06,169.76,938.24,170.54,936.58,169.58z"/>
	<path class="st10" d="M936.58,169.58l-106.76-61.69c-1.66-0.96-2.52-3.29-1.93-5.2l23.8-77.26c0.59-1.92,2.41-2.7,4.07-1.74
		l106.76,61.69c1.66,0.96,2.52,3.29,1.93,5.2l-23.8,77.26C940.06,169.76,938.24,170.54,936.58,169.58z"/>
	<path class="st10" d="M936.58,169.58l-106.76-61.69c-1.66-0.96-2.52-3.29-1.93-5.2l23.8-77.26c0.59-1.92,2.41-2.7,4.07-1.74
		l106.76,61.69c1.66,0.96,2.52,3.29,1.93,5.2l-23.8,77.26C940.06,169.76,938.24,170.54,936.58,169.58z"/>
	<path class="st11" d="M930.85,145.97l-72.27-41.72c-1.14-0.66-1.73-2.25-1.32-3.57l16.34-53.06c0.4-1.32,1.65-1.85,2.79-1.19
		l72.27,41.72c1.14,0.66,1.73,2.25,1.32,3.57l-16.34,53.06C933.23,146.09,931.98,146.63,930.85,145.97z"/>
	<g>
		
			<radialGradient id="SVGID_00000091696838489638486550000011650082898422230195_" cx="746.5526" cy="15.2933" r="266.1259" gradientUnits="userSpaceOnUse">
			<stop  offset="0" style="stop-color:#E39A65"/>
			<stop  offset="0.4742" style="stop-color:#A92FFB"/>
			<stop  offset="0.5875" style="stop-color:#891CFB"/>
			<stop  offset="0.7262" style="stop-color:#6507FA"/>
			<stop  offset="1" style="stop-color:#3919BB"/>
		</radialGradient>
		<path style="fill:url(#SVGID_00000091696838489638486550000011650082898422230195_);" d="M921.08,147.25l-72.27-41.72
			c-1.14-0.66-1.73-2.25-1.32-3.57l16.34-53.06c0.4-1.32,1.65-1.85,2.79-1.19l72.27,41.72c1.14,0.66,1.73,2.25,1.32,3.57
			l-16.34,53.06C923.47,147.37,922.22,147.91,921.08,147.25z"/>
	</g>
	<g class="st13">
		<path class="st7" d="M919.37,135.15l-17.3-9.95c-0.84-0.48-1.28-1.66-0.98-2.63l12.05-39.13c0.3-0.97,1.22-1.36,2.06-0.88
			l17.3,9.95c0.84,0.48,1.28,1.66,0.98,2.63l-12.05,39.13C921.13,135.24,920.21,135.63,919.37,135.15z"/>
	</g>
	<path class="st5" d="M938.89,89.42L866.62,47.7c-0.71-0.41-1.47-0.35-2.03,0.07c0.34-0.01,0.7,0.07,1.04,0.27l72.27,41.72
		c1.14,0.66,1.73,2.25,1.32,3.57l-16.34,53.06c-0.15,0.49-0.42,0.87-0.76,1.13c0.78-0.02,1.47-0.55,1.75-1.46l16.34-53.06
		C940.62,91.68,940.03,90.08,938.89,89.42z"/>
	<g>
		
			<radialGradient id="SVGID_00000070105628571640375340000006622270709032600986_" cx="781.2457" cy="47.7576" r="155.6597" gradientUnits="userSpaceOnUse">
			<stop  offset="0" style="stop-color:#E39A65"/>
			<stop  offset="0.4742" style="stop-color:#A92FFB"/>
			<stop  offset="0.5875" style="stop-color:#891CFB"/>
			<stop  offset="0.7262" style="stop-color:#6507FA"/>
			<stop  offset="1" style="stop-color:#3919BB"/>
		</radialGradient>
		<path style="fill:url(#SVGID_00000070105628571640375340000006622270709032600986_);" d="M912.22,135.91l-17.3-9.95
			c-0.84-0.48-1.28-1.66-0.98-2.63L906,84.2c0.3-0.97,1.22-1.36,2.06-0.88l17.3,9.95c0.84,0.48,1.28,1.66,0.98,2.63l-12.05,39.13
			C913.98,136,913.06,136.4,912.22,135.91z"/>
	</g>
	<path class="st5" d="M925.35,93.27l-17.3-9.95c-0.57-0.33-1.17-0.24-1.59,0.14c0.2,0.02,0.4,0.08,0.6,0.2l17.3,9.95
		c0.84,0.48,1.28,1.66,0.98,2.63l-12.05,39.13c-0.1,0.31-0.26,0.56-0.46,0.74c0.64,0.06,1.23-0.34,1.45-1.08l12.05-39.13
		C926.63,94.93,926.19,93.75,925.35,93.27z"/>
	<g>
		<g class="st13">
			<path class="st7" d="M877.21,76.34l-3.27-1.89c-0.3-0.17-0.47-0.6-0.36-0.94l0,0c0.1-0.34,0.43-0.48,0.73-0.31l3.27,1.89
				c0.3,0.17,0.47,0.6,0.36,0.94l0,0C877.84,76.38,877.51,76.52,877.21,76.34z"/>
			<path class="st7" d="M884.99,80.83l-4.82-2.78c-0.3-0.17-0.47-0.6-0.36-0.94l0,0c0.1-0.34,0.43-0.48,0.73-0.31l4.82,2.78
				c0.3,0.17,0.47,0.6,0.36,0.94l0,0C885.62,80.87,885.29,81.01,884.99,80.83z"/>
			<path class="st7" d="M870.62,90.88L867.36,89c-0.3-0.17-0.47-0.6-0.36-0.94l0,0c0.1-0.34,0.43-0.48,0.73-0.31l3.27,1.89
				c0.3,0.17,0.47,0.6,0.36,0.94l0,0C871.25,90.92,870.93,91.06,870.62,90.88z"/>
			<path class="st7" d="M877.56,94.89l-4.82-2.78c-0.3-0.17-0.47-0.6-0.36-0.94l0,0c0.1-0.34,0.43-0.48,0.73-0.31l4.82,2.78
				c0.3,0.17,0.47,0.6,0.36,0.94l0,0C878.19,94.92,877.86,95.06,877.56,94.89z"/>
			<path class="st7" d="M867.43,73.75l-2.04-1.18c-0.3-0.17-0.47-0.6-0.36-0.94h0c0.1-0.34,0.43-0.48,0.73-0.31l2.04,1.18
				c0.3,0.17,0.47,0.6,0.36,0.94l0,0C868.06,73.79,867.73,73.93,867.43,73.75z"/>
			<path class="st7" d="M873.56,80.35l-6.23-3.6c-0.3-0.17-0.47-0.6-0.36-0.94l0,0c0.1-0.34,0.43-0.48,0.73-0.31l6.23,3.6
				c0.3,0.17,0.47,0.6,0.36,0.94l0,0C874.2,80.39,873.87,80.53,873.56,80.35z"/>
			<path class="st7" d="M867.82,83.15l-2.04-1.18c-0.3-0.17-0.47-0.6-0.36-0.94l0,0c0.1-0.34,0.43-0.48,0.73-0.31l2.04,1.18
				c0.3,0.17,0.47,0.6,0.36,0.94l0,0C868.45,83.19,868.12,83.32,867.82,83.15z"/>
			<path class="st7" d="M878.31,101.43l-5.45-3.15c-0.3-0.17-0.47-0.6-0.36-0.94l0,0c0.1-0.34,0.43-0.48,0.73-0.31l5.45,3.15
				c0.3,0.17,0.47,0.6,0.36,0.94l0,0C878.94,101.47,878.61,101.61,878.31,101.43z"/>
			<path class="st7" d="M865.53,87.94l-1.31-0.76c-0.3-0.17-0.47-0.6-0.36-0.94l0,0c0.1-0.34,0.43-0.48,0.73-0.31l1.31,0.76
				c0.3,0.17,0.47,0.6,0.36,0.94l0,0C866.16,87.98,865.83,88.12,865.53,87.94z"/>
			<path class="st7" d="M864.29,93.34l-1.63-0.94c-0.3-0.17-0.47-0.6-0.36-0.94l0,0c0.1-0.34,0.43-0.48,0.73-0.31l1.63,0.94
				c0.3,0.17,0.47,0.6,0.36,0.94l0,0C864.92,93.38,864.59,93.52,864.29,93.34z"/>
			<path class="st7" d="M870.62,96.99l-4.29-2.48c-0.3-0.17-0.47-0.6-0.36-0.94l0,0c0.1-0.34,0.43-0.48,0.73-0.31l4.29,2.48
				c0.3,0.17,0.47,0.6,0.36,0.94l0,0C871.25,97.03,870.92,97.17,870.62,96.99z"/>
			<path class="st7" d="M864.97,96.79l-3.08-1.78c-0.3-0.17-0.47-0.6-0.36-0.94l0,0c0.1-0.34,0.43-0.48,0.73-0.31l3.08,1.78
				c0.3,0.17,0.47,0.6,0.36,0.94l0,0C865.6,96.83,865.27,96.96,864.97,96.79z"/>
			<path class="st7" d="M882.98,104.15L881,103c-0.3-0.17-0.47-0.6-0.36-0.94l0,0c0.1-0.34,0.43-0.48,0.73-0.31l1.98,1.14
				c0.3,0.17,0.47,0.6,0.36,0.94l0,0C883.61,104.18,883.29,104.32,882.98,104.15z"/>
			<path class="st7" d="M875.4,87.53l-5.45-3.15c-0.3-0.17-0.47-0.6-0.36-0.94l0,0c0.1-0.34,0.43-0.48,0.73-0.31l5.45,3.15
				c0.3,0.17,0.47,0.6,0.36,0.94l0,0C876.04,87.57,875.71,87.7,875.4,87.53z"/>
		</g>
		<path class="st15" d="M876.05,84.85l-9.5-5.48c-0.3-0.17-0.47-0.6-0.36-0.94l0,0c0.1-0.34,0.43-0.48,0.73-0.31l9.5,5.48
			c0.3,0.17,0.47,0.6,0.36,0.94l0,0C876.68,84.88,876.35,85.02,876.05,84.85z"/>
		<path class="st15" d="M870.45,87.72L865,84.58c-0.3-0.17-0.47-0.6-0.36-0.94l0,0c0.1-0.34,0.43-0.48,0.73-0.31l5.45,3.15
			c0.3,0.17,0.47,0.6,0.36,0.94l0,0C871.08,87.76,870.75,87.9,870.45,87.72z"/>
		<path class="st15" d="M879.54,89.92l-1.98-1.14c-0.3-0.17-0.47-0.6-0.36-0.94l0,0c0.1-0.34,0.43-0.48,0.73-0.31l1.98,1.14
			c0.3,0.17,0.47,0.6,0.36,0.94l0,0C880.17,89.95,879.84,90.09,879.54,89.92z"/>
		<path class="st15" d="M899.67,89.31l-11.72-6.77c-0.3-0.17-0.47-0.6-0.36-0.94l0,0c0.1-0.34,0.43-0.48,0.73-0.31l11.72,6.77
			c0.3,0.17,0.47,0.6,0.36,0.94l0,0C900.31,89.35,899.98,89.49,899.67,89.31z"/>
		<path class="st16" d="M869.99,93.58l-6.55-3.78c-0.3-0.17-0.47-0.6-0.36-0.94l0,0c0.1-0.34,0.43-0.48,0.73-0.31l6.55,3.78
			c0.3,0.17,0.47,0.6,0.36,0.94l0,0C870.62,93.61,870.29,93.75,869.99,93.58z"/>
		<path class="st16" d="M870.98,72.75l-4.82-2.78c-0.3-0.17-0.47-0.6-0.36-0.94l0,0c0.1-0.34,0.43-0.48,0.73-0.31l4.82,2.78
			c0.3,0.17,0.47,0.6,0.36,0.94l0,0C871.61,72.79,871.28,72.92,870.98,72.75z"/>
		<path class="st15" d="M863.96,99.26l-5.58-3.22c-0.3-0.17-0.47-0.6-0.36-0.94l0,0c0.1-0.34,0.43-0.48,0.73-0.31l5.58,3.22
			c0.3,0.17,0.47,0.6,0.36,0.94l0,0C864.59,99.3,864.26,99.44,863.96,99.26z"/>
	</g>
	<g>
		<path class="st5" d="M935.38,81.74l-3.27-1.89c-0.3-0.17-0.47-0.6-0.36-0.94l0,0c0.1-0.34,0.43-0.48,0.73-0.31l3.27,1.89
			c0.3,0.17,0.47,0.6,0.36,0.94l0,0C936.01,81.78,935.68,81.91,935.38,81.74z"/>
		<path class="st5" d="M941.61,85.34l-3.27-1.89c-0.3-0.17-0.47-0.6-0.36-0.94l0,0c0.1-0.34,0.43-0.48,0.73-0.31l3.27,1.89
			c0.3,0.17,0.47,0.6,0.36,0.94l0,0C942.24,85.37,941.91,85.51,941.61,85.34z"/>
		<path class="st5" d="M947.84,88.93l-3.27-1.89c-0.3-0.17-0.47-0.6-0.36-0.94l0,0c0.1-0.34,0.43-0.48,0.73-0.31l3.27,1.89
			c0.3,0.17,0.47,0.6,0.36,0.94l0,0C948.47,88.97,948.14,89.11,947.84,88.93z"/>
		<path class="st16" d="M950.9,90.7l-0.1-0.06c-0.3-0.17-0.47-0.6-0.36-0.94l0,0c0.1-0.34,0.43-0.48,0.73-0.31l0.1,0.06
			c0.3,0.17,0.47,0.6,0.36,0.94l0,0C951.53,90.74,951.2,90.88,950.9,90.7z"/>
	</g>
	<g>
		<path class="st15" d="M902.76,106.25c-0.35-0.2-0.72-0.09-0.82,0.26l-0.62,2.04c-0.11,0.34,0.09,0.79,0.44,0.99
			c0.35,0.2,0.72,0.09,0.82-0.26l0.62-2.04C903.31,106.9,903.11,106.45,902.76,106.25z"/>
		<path class="st16" d="M905.39,108.07c-0.35-0.2-0.72-0.09-0.82,0.26l-0.54,1.79c-0.11,0.34,0.09,0.79,0.44,0.99
			c0.35,0.2,0.72,0.09,0.82-0.26l0.54-1.79C905.94,108.72,905.74,108.27,905.39,108.07z"/>
		<path class="st15" d="M908.71,107.64c-0.35-0.2-0.72-0.09-0.82,0.26l-1.15,3.78c-0.11,0.34,0.09,0.79,0.44,0.99
			c0.35,0.2,0.72,0.09,0.82-0.26l1.15-3.78C909.25,108.29,909.06,107.85,908.71,107.64z"/>
		<path class="st15" d="M912.08,107.03c-0.35-0.2-0.72-0.09-0.82,0.26l-1.82,5.95c-0.11,0.34,0.09,0.79,0.44,0.99
			c0.35,0.2,0.72,0.09,0.82-0.26l1.82-5.95C912.63,107.68,912.43,107.23,912.08,107.03z"/>
		<path class="st16" d="M914.6,109.22c-0.35-0.2-0.72-0.09-0.82,0.26l-1.63,5.33c-0.11,0.34,0.09,0.79,0.44,0.99
			c0.35,0.2,0.72,0.09,0.82-0.26l1.63-5.33C915.15,109.87,914.95,109.42,914.6,109.22z"/>
		<path class="st15" d="M918.52,106.81c-0.35-0.2-0.72-0.09-0.82,0.26l-2.84,9.31c-0.11,0.34,0.09,0.79,0.44,0.99
			c0.35,0.2,0.72,0.09,0.82-0.26l2.84-9.31C919.07,107.45,918.87,107.01,918.52,106.81z"/>
	</g>
	<path class="st10" d="M829.93,190.58c-0.99,0-1.95-0.21-2.68-0.63l-28.95-16.72c-0.77-0.44-1.19-1.08-1.19-1.78
		c0-0.82,0.58-1.63,1.6-2.21l14.9-8.6c1.82-1.05,4.49-1.15,6.09-0.24l28.95,16.72c0.77,0.44,1.19,1.08,1.19,1.78
		c0,0.82-0.58,1.63-1.6,2.21l-14.9,8.6C832.36,190.29,831.12,190.58,829.93,190.58z M817.04,160.62c-1.05,0-2.16,0.25-3.01,0.74
		l-14.9,8.6c-0.75,0.43-1.18,0.97-1.18,1.49c0,0.51,0.42,0.86,0.77,1.06l28.95,16.72c1.32,0.76,3.72,0.65,5.25-0.24l14.9-8.6
		c0.75-0.43,1.18-0.98,1.18-1.49c0-0.51-0.42-0.86-0.77-1.06l-28.95-16.72C818.7,160.79,817.89,160.62,817.04,160.62z"/>
</g>
<g>
	<g>
		<ellipse class="st1" cx="948.31" cy="233.77" rx="15.59" ry="9"/>
		
			<radialGradient id="SVGID_00000049205087199873339220000004386452797179893412_" cx="923.3616" cy="183.7608" r="131.2311" gradientUnits="userSpaceOnUse">
			<stop  offset="0" style="stop-color:#E39A65"/>
			<stop  offset="0.1528" style="stop-color:#A92FFB"/>
			<stop  offset="0.4087" style="stop-color:#3919BB"/>
			<stop  offset="0.9311" style="stop-color:#3919BB"/>
		</radialGradient>
		<path style="fill:url(#SVGID_00000049205087199873339220000004386452797179893412_);" d="M971.42,169.63h-44.4l4.13,48.07l0,0
			c0,2.67,1.76,5.34,5.29,7.38c7.06,4.07,18.5,4.07,25.55,0c3.53-2.04,5.29-4.71,5.29-7.38L971.42,169.63z"/>
		<path class="st10" d="M971.42,169.63h-44.4l0.68,7.91c1.02,1.3,2.39,2.56,4.12,3.7c8.48,5.63,22.48,6.71,32.04,2.66l-1.48,35.16
			c-0.06,1.53-0.59,3.02-1.59,4.19c-1.44,1.69-4.21,3.68-9.54,4.81c3.93-0.25,7.74-1.24,10.75-2.98c3.53-2.04,5.29-4.71,5.29-7.38
			l3.31-38.55l0,0L971.42,169.63z"/>
		<ellipse class="st10" cx="949.22" cy="169.63" rx="22.2" ry="12.82"/>
		<ellipse class="st10" cx="949.22" cy="165.11" rx="19.12" ry="11.04"/>
		
			<linearGradient id="SVGID_00000089553249663000037350000000257462801399732883_" gradientUnits="userSpaceOnUse" x1="925.6842" y1="167.504" x2="972.7557" y2="167.504">
			<stop  offset="0" style="stop-color:#E39A65"/>
			<stop  offset="0.252" style="stop-color:#A92FFB"/>
			<stop  offset="0.5556" style="stop-color:#3919BB"/>
		</linearGradient>
		<path style="fill:url(#SVGID_00000089553249663000037350000000257462801399732883_);" d="M972.73,169.03L972.73,169.03l0-0.04
			c0-0.02,0-0.04-0.01-0.07l-0.43-4.3l-0.02,0.05c-0.19-3.26-2.43-6.48-6.74-8.97c-9.01-5.2-23.63-5.2-32.64,0
			c-4.42,2.55-6.66,5.88-6.75,9.22l-0.01-0.01l-0.41,3.83c-0.01,0.1-0.02,0.2-0.03,0.3l-0.01,0.06l0,0
			c-0.24,3.65,2.04,7.35,6.87,10.14c9.19,5.31,24.1,5.31,33.29,0C970.72,176.43,973.01,172.7,972.73,169.03z"/>
		
			<linearGradient id="SVGID_00000053542563955386006140000002167473109590953605_" gradientUnits="userSpaceOnUse" x1="930.0979" y1="165.1122" x2="968.3398" y2="165.1122">
			<stop  offset="0" style="stop-color:#4F1FEC"/>
			<stop  offset="1" style="stop-color:#A92FFB"/>
		</linearGradient>
		
			<ellipse style="fill:url(#SVGID_00000053542563955386006140000002167473109590953605_);" cx="949.22" cy="165.11" rx="19.12" ry="11.04"/>
		
			<linearGradient id="SVGID_00000111154603374449384620000004371488566257276331_" gradientUnits="userSpaceOnUse" x1="929.1907" y1="165.1122" x2="967.4326" y2="165.1122">
			<stop  offset="0" style="stop-color:#4F1FEC"/>
			<stop  offset="1" style="stop-color:#A92FFB"/>
		</linearGradient>
		
			<ellipse style="fill:url(#SVGID_00000111154603374449384620000004371488566257276331_);" cx="948.31" cy="165.11" rx="19.12" ry="11.04"/>
		<path class="st10" d="M937.97,158.95c7.47-4.31,19.57-4.31,27.04,0c0.1,0.05,0.17,0.12,0.27,0.17c-0.72-0.64-1.56-1.25-2.54-1.82
			c-7.47-4.31-19.57-4.31-27.04,0c-7.37,4.26-7.45,11.12-0.27,15.44C930.63,168.47,931.47,162.7,937.97,158.95z"/>
		
			<linearGradient id="SVGID_00000138540631471963119650000003600942480581152953_" gradientUnits="userSpaceOnUse" x1="930.1011" y1="160.0717" x2="978.3177" y2="160.0717">
			<stop  offset="0" style="stop-color:#131060"/>
			<stop  offset="0.1857" style="stop-color:#141062"/>
			<stop  offset="0.2823" style="stop-color:#19106A"/>
			<stop  offset="0.3584" style="stop-color:#221078"/>
			<stop  offset="0.4238" style="stop-color:#2E0F8B"/>
			<stop  offset="0.4823" style="stop-color:#3E0FA3"/>
			<stop  offset="0.5359" style="stop-color:#510EC2"/>
			<stop  offset="0.5847" style="stop-color:#680DE5"/>
			<stop  offset="0.6071" style="stop-color:#740DF8"/>
			<stop  offset="0.6179" style="stop-color:#7A14F0"/>
			<stop  offset="0.6826" style="stop-color:#9B3CC3"/>
			<stop  offset="0.7477" style="stop-color:#B75D9D"/>
			<stop  offset="0.8123" style="stop-color:#CC7680"/>
			<stop  offset="0.8762" style="stop-color:#DC886C"/>
			<stop  offset="0.9391" style="stop-color:#E5935F"/>
			<stop  offset="1" style="stop-color:#E8975B"/>
		</linearGradient>
		<path style="fill:url(#SVGID_00000138540631471963119650000003600942480581152953_);" d="M935.7,159.22
			c7.47-4.31,19.57-4.31,27.04,0c3.31,1.91,5.15,4.35,5.53,6.85c0.47-3.14-1.37-6.36-5.53-8.76c-7.47-4.31-19.57-4.31-27.04,0
			c-4.16,2.4-6,5.63-5.53,8.76C930.55,163.57,932.39,161.13,935.7,159.22z"/>
		
			<radialGradient id="SVGID_00000165941245087675922470000003534435552959554741_" cx="919.809" cy="154.1863" r="85.8459" gradientUnits="userSpaceOnUse">
			<stop  offset="0" style="stop-color:#E39A65"/>
			<stop  offset="0.252" style="stop-color:#A92FFB"/>
			<stop  offset="0.7357" style="stop-color:#3919BB"/>
		</radialGradient>
		<path style="fill:url(#SVGID_00000165941245087675922470000003534435552959554741_);" d="M965.68,155.8
			c-9-5.3-23.67-5.43-32.76-0.29c-9.09,5.14-9.17,13.61-0.17,18.91c9,5.3,23.67,5.43,32.76,0.29
			C974.61,169.57,974.68,161.1,965.68,155.8z M962.74,172.92c-2.49,1.44-5.51,2.39-8.69,2.87l-0.35-1.14
			c-0.14-0.46-0.56-0.78-1.05-0.78h-6.87c-0.48,0-0.91,0.31-1.05,0.78l-0.35,1.14c-3.18-0.48-6.2-1.43-8.69-2.87
			c-7.47-4.31-7.47-11.3,0-15.61c7.47-4.31,19.57-4.31,27.04,0C970.21,161.62,970.21,168.61,962.74,172.92z"/>
		<g>
			<path class="st5" d="M962.74,156.49c-7.47-4.31-19.57-4.31-27.04,0c-3.91,2.26-5.77,5.25-5.58,8.21c0.17-2.69,2.03-5.35,5.58-7.4
				c7.47-4.31,19.57-4.31,27.04,0c3.55,2.05,5.41,4.71,5.58,7.4C968.51,161.74,966.65,158.75,962.74,156.49z"/>
			<path class="st5" d="M965.52,173.9c-9.09,5.14-23.76,5.01-32.76-0.29c-4.28-2.52-6.51-5.76-6.69-9.02
				c-0.18,3.53,2.04,7.1,6.69,9.84c9,5.3,23.67,5.43,32.76,0.29c4.77-2.7,7.05-6.3,6.85-9.89
				C972.2,168.13,969.92,171.41,965.52,173.9z"/>
		</g>
		<path class="st23" d="M951.23,176.38h-4.03c-0.31,0-0.55-0.25-0.55-0.55l0,0c0-0.31,0.25-0.55,0.55-0.55h4.03
			c0.31,0,0.55,0.25,0.55,0.55l0,0C951.79,176.13,951.54,176.38,951.23,176.38z"/>
		
			<linearGradient id="SVGID_00000026855357592094463110000015484485625635540124_" gradientUnits="userSpaceOnUse" x1="946.1925" y1="175.6331" x2="952.8629" y2="175.6331">
			<stop  offset="0" style="stop-color:#131060"/>
			<stop  offset="0.1857" style="stop-color:#141062"/>
			<stop  offset="0.2823" style="stop-color:#19106A"/>
			<stop  offset="0.3584" style="stop-color:#221078"/>
			<stop  offset="0.4238" style="stop-color:#2E0F8B"/>
			<stop  offset="0.4823" style="stop-color:#3E0FA3"/>
			<stop  offset="0.5359" style="stop-color:#510EC2"/>
			<stop  offset="0.5847" style="stop-color:#680DE5"/>
			<stop  offset="0.6071" style="stop-color:#740DF8"/>
			<stop  offset="0.6179" style="stop-color:#7A14F0"/>
			<stop  offset="0.6826" style="stop-color:#9B3CC3"/>
			<stop  offset="0.7477" style="stop-color:#B75D9D"/>
			<stop  offset="0.8123" style="stop-color:#CC7680"/>
			<stop  offset="0.8762" style="stop-color:#DC886C"/>
			<stop  offset="0.9391" style="stop-color:#E5935F"/>
			<stop  offset="1" style="stop-color:#E8975B"/>
		</linearGradient>
		<path style="fill:url(#SVGID_00000026855357592094463110000015484485625635540124_);" d="M951.27,175.27h-4.1
			c-0.29,0-0.52,0.23-0.52,0.52v0.07c0,0.05,0.02,0.09,0.03,0.14c0.06-0.22,0.25-0.38,0.49-0.38h4.1c0.24,0,0.43,0.16,0.49,0.38
			c0.01-0.04,0.03-0.09,0.03-0.14v-0.07C951.79,175.5,951.56,175.27,951.27,175.27z"/>
	</g>
	<g class="st13">
		<path class="st15" d="M948.25,215.16c-0.52,1.97-2.54,3.14-4.51,2.62s-3.14-2.54-2.62-4.51c0.52-1.97,2.38-2.52,4.35-2
			S948.78,213.19,948.25,215.16z"/>
		<path class="st15" d="M951.16,211.28c-0.74,0.73-1.69,0.63-2.32-0.01c-0.63-0.64-0.7-1.6,0.04-2.32c0.74-0.73,2.15-1.08,2.78-0.44
			C952.29,209.15,951.9,210.55,951.16,211.28z"/>
		<path class="st15" d="M947.3,208.19c-0.18,1.02-1.01,1.5-1.9,1.34c-0.89-0.16-1.5-0.89-1.32-1.91c0.18-1.02,1.12-2.13,2.01-1.98
			S947.48,207.17,947.3,208.19z"/>
		<path class="st15" d="M942.55,207.72c0.39,0.96-0.05,1.8-0.88,2.15c-0.83,0.34-1.74,0.05-2.14-0.91c-0.39-0.96-0.2-2.4,0.64-2.74
			C941,205.88,942.15,206.76,942.55,207.72z"/>
	</g>
</g>
</svg>
