<?xml version="1.0" encoding="utf-8"?>
<!-- Generator: Adobe Illustrator 26.0.1, SVG Export Plug-In . SVG Version: 6.00 Build 0)  -->
<svg version="1.1" id="Ñëîé_1" xmlns="http://www.w3.org/2000/svg" xmlns:xlink="http://www.w3.org/1999/xlink" x="0px" y="0px"
	 viewBox="0 0 600 311.54" style="enable-background:new 0 0 600 311.54;" xml:space="preserve">
<style type="text/css">
	.st0{fill:url(#SVGID_1_);}
	.st1{opacity:0.6;fill:#020230;}
	.st2{fill:url(#SVGID_00000071544274520367210300000018041504251267156104_);}
	.st3{fill:url(#SVGID_00000083071192105229368670000018208677916414531758_);}
	.st4{fill:url(#SVGID_00000179627648470837865420000014875850269048894626_);}
	.st5{fill:#FFFFFF;}
	.st6{opacity:0.4;}
	.st7{fill:#06033E;}
	.st8{fill:url(#SVGID_00000181782115777488122520000008277237272654838920_);}
	.st9{fill:url(#SVGID_00000143601848421318404610000001668947957796540294_);}
	.st10{opacity:0.4;fill:#06033E;}
	.st11{opacity:0.5;fill:#06033E;}
	.st12{fill:url(#SVGID_00000121957558951733787170000017654652866926638515_);}
	.st13{opacity:0.5;}
	.st14{fill:url(#SVGID_00000081615686717778685310000015665504345096375203_);}
	.st15{fill:#E8975B;}
	.st16{fill:#F8359E;}
	.st17{fill:url(#SVGID_00000183954445259814528540000011083923753643711410_);}
	.st18{fill:url(#SVGID_00000057851535748465071550000003758103185207688077_);}
	.st19{fill:url(#SVGID_00000090986549147908287300000001799323843719781258_);}
	.st20{fill:url(#SVGID_00000072962525554720049230000006903586710607647151_);}
	.st21{fill:url(#SVGID_00000174592343038353050550000007844650024930673304_);}
	.st22{fill:url(#SVGID_00000042713720344450979170000015500704138226992797_);}
	.st23{fill:#0C0A78;}
	.st24{fill:url(#SVGID_00000173873450602786971670000009681529143139165837_);}
</style>
<radialGradient id="SVGID_1_" cx="198.1738" cy="-126.6897" r="642.2831" gradientTransform="matrix(1.24 0 0 0.8602 -179.5412 38.2638)" gradientUnits="userSpaceOnUse">
	<stop  offset="3.968250e-03" style="stop-color:#2459FD"/>
	<stop  offset="0.0606" style="stop-color:#204EE4"/>
	<stop  offset="0.1723" style="stop-color:#193AB8"/>
	<stop  offset="0.2892" style="stop-color:#132992"/>
	<stop  offset="0.4101" style="stop-color:#0E1B74"/>
	<stop  offset="0.5363" style="stop-color:#0B115C"/>
	<stop  offset="0.6701" style="stop-color:#08094B"/>
	<stop  offset="0.8166" style="stop-color:#060441"/>
	<stop  offset="1" style="stop-color:#06033E"/>
</radialGradient>
<rect class="st0" width="600" height="311.54"/>
<g>
	<path class="st1" d="M529.61,226.11l-72.46-33.13l-24.42,34.19L327.2,166.24c-2.03-1.17-5.58-1.03-7.93,0.33l-89.53,51.69
		c-2.35,1.36-2.6,3.41-0.57,4.58l139.5,80.54c2.03,1.17,5.58,1.03,7.93-0.33L465,252l0,0l64.38-21.56
		C531.39,229.77,531.54,226.99,529.61,226.11z"/>
	
		<radialGradient id="SVGID_00000116214210048059014280000004389871958606534845_" cx="362.2142" cy="25.7044" r="215.6717" gradientUnits="userSpaceOnUse">
		<stop  offset="0" style="stop-color:#E39A65"/>
		<stop  offset="0.4742" style="stop-color:#A92FFB"/>
		<stop  offset="0.5947" style="stop-color:#891CFB"/>
		<stop  offset="0.7421" style="stop-color:#6507FA"/>
		<stop  offset="0.8016" style="stop-color:#0D0C6F"/>
	</radialGradient>
	<path style="fill:url(#SVGID_00000116214210048059014280000004389871958606534845_);" d="M503.75,110.96L364.8,30.74
		c-0.96-0.55-1.95-0.67-2.84-0.41v0l0,0c0,0-0.01,0-0.01,0l-2.57,0.9l0.91,0.21c-0.36,0.43-0.66,0.96-0.85,1.59l-31.42,102.02
		c-0.78,2.53,0.36,5.6,2.55,6.87l138.95,80.22c0.34,0.2,0.68,0.33,1.02,0.42l-0.34,0.75l2.46-0.86l-0.01,0
		c1.01-0.4,1.84-1.3,2.24-2.6l31.42-102.02C507.08,115.3,505.94,112.23,503.75,110.96z"/>
	
		<radialGradient id="SVGID_00000012443780328541488970000011532304230633828255_" cx="230.3047" cy="198.9044" r="235.8352" gradientUnits="userSpaceOnUse">
		<stop  offset="0" style="stop-color:#E39A65"/>
		<stop  offset="0.4742" style="stop-color:#A92FFB"/>
		<stop  offset="0.5679" style="stop-color:#891CFB"/>
		<stop  offset="0.6825" style="stop-color:#6507FA"/>
		<stop  offset="0.7381" style="stop-color:#0D0C6F"/>
	</radialGradient>
	<path style="fill:url(#SVGID_00000012443780328541488970000011532304230633828255_);" d="M464.54,225.96l0.05,0.06l-137.25-79.24
		c-2.02-1.17-5.55-1.02-7.88,0.33l-88.67,51.2l-2.96-1.13l0.83,4.15l0,0c0.11,0.62,0.55,1.21,1.33,1.66l138.51,79.97
		c2.02,1.17,5.55,1.02,7.88-0.33l88.9-51.33c1.1-0.63,1.73-1.42,1.88-2.2l0.01,0.01l0.85-4.04L464.54,225.96z"/>
	
		<radialGradient id="SVGID_00000183962211548692187280000016119416149574419884_" cx="251.9952" cy="151.5684" r="211.4837" gradientUnits="userSpaceOnUse">
		<stop  offset="0" style="stop-color:#E39A65"/>
		<stop  offset="0.4742" style="stop-color:#A92FFB"/>
		<stop  offset="0.5875" style="stop-color:#891CFB"/>
		<stop  offset="0.7262" style="stop-color:#6507FA"/>
		<stop  offset="1" style="stop-color:#3919BB"/>
	</radialGradient>
	<path style="fill:url(#SVGID_00000183962211548692187280000016119416149574419884_);" d="M368.66,279.3l-139.5-80.54
		c-2.03-1.17-1.78-3.22,0.57-4.58l89.53-51.69c2.35-1.36,5.9-1.5,7.93-0.33l139.5,80.54c2.03,1.17,1.78,3.22-0.57,4.58l-89.53,51.69
		C374.25,280.33,370.69,280.48,368.66,279.3z"/>
	<path class="st5" d="M466.12,226.2l-89.53,51.69c-2.35,1.36-5.9,1.5-7.93,0.33l-139.5-80.54c-0.69-0.4-1.1-0.91-1.27-1.45
		c-0.27,0.94,0.12,1.87,1.27,2.53l139.5,80.54c2.03,1.17,5.58,1.03,7.93-0.33l89.53-51.69c1.55-0.89,2.17-2.09,1.84-3.13
		C467.75,224.88,467.15,225.6,466.12,226.2z"/>
	<g class="st6">
		<path class="st7" d="M295.7,185.69l-4.71-2.72c-0.38-0.22-0.33-0.6,0.11-0.85l5.56-3.21c0.44-0.25,1.1-0.28,1.48-0.06l4.71,2.72
			c0.38,0.22,0.33,0.6-0.11,0.85l-5.56,3.21C296.74,185.88,296.08,185.91,295.7,185.69z"/>
		<path class="st7" d="M302.97,189.89l-4.71-2.72c-0.38-0.22-0.33-0.6,0.11-0.85l5.56-3.21c0.44-0.25,1.1-0.28,1.48-0.06l4.71,2.72
			c0.38,0.22,0.33,0.6-0.11,0.85l-5.56,3.21C304.01,190.08,303.35,190.11,302.97,189.89z"/>
		<path class="st7" d="M310.25,194.09l-4.71-2.72c-0.38-0.22-0.33-0.6,0.11-0.85l5.56-3.21c0.44-0.25,1.1-0.28,1.48-0.06l4.71,2.72
			c0.38,0.22,0.33,0.6-0.11,0.85l-5.56,3.21C311.29,194.28,310.63,194.31,310.25,194.09z"/>
		<path class="st7" d="M320.31,190.62l-4.71-2.72c-0.38-0.22-0.33-0.6,0.11-0.85l4.67-2.69c0.44-0.25,1.1-0.28,1.48-0.06l4.71,2.72
			c0.38,0.22,0.33,0.6-0.11,0.85l-4.67,2.69C321.35,190.81,320.68,190.84,320.31,190.62z"/>
		<path class="st7" d="M327.58,194.82l-4.71-2.72c-0.38-0.22-0.33-0.6,0.11-0.85l4.67-2.69c0.44-0.25,1.1-0.28,1.48-0.06l4.71,2.72
			c0.38,0.22,0.33,0.6-0.11,0.85l-4.67,2.69C328.62,195.01,327.96,195.04,327.58,194.82z"/>
		<path class="st7" d="M334.85,199.02l-4.71-2.72c-0.38-0.22-0.33-0.6,0.11-0.85l4.67-2.69c0.44-0.25,1.1-0.28,1.48-0.06l4.71,2.72
			c0.38,0.22,0.33,0.6-0.11,0.85l-4.67,2.69C335.89,199.21,335.23,199.24,334.85,199.02z"/>
		<path class="st7" d="M342.13,203.22l-4.71-2.72c-0.38-0.22-0.33-0.6,0.11-0.85l4.67-2.69c0.44-0.25,1.1-0.28,1.48-0.06l4.71,2.72
			c0.38,0.22,0.33,0.6-0.11,0.85l-4.67,2.69C343.16,203.41,342.5,203.44,342.13,203.22z"/>
		<path class="st7" d="M349.4,207.42l-4.71-2.72c-0.38-0.22-0.33-0.6,0.11-0.85l4.67-2.69c0.44-0.25,1.1-0.28,1.48-0.06l4.71,2.72
			c0.38,0.22,0.33,0.6-0.11,0.85l-4.67,2.69C350.44,207.61,349.78,207.64,349.4,207.42z"/>
		<path class="st7" d="M356.67,211.62l-4.71-2.72c-0.38-0.22-0.33-0.6,0.11-0.85l4.67-2.69c0.44-0.25,1.1-0.28,1.48-0.06l4.71,2.72
			c0.38,0.22,0.33,0.6-0.11,0.85l-4.67,2.69C357.71,211.81,357.05,211.84,356.67,211.62z"/>
		<path class="st7" d="M363.95,215.82l-4.71-2.72c-0.38-0.22-0.33-0.6,0.11-0.85l4.67-2.69c0.44-0.25,1.1-0.28,1.48-0.06l4.71,2.72
			c0.38,0.22,0.33,0.6-0.11,0.85l-4.67,2.69C364.98,216.01,364.32,216.04,363.95,215.82z"/>
		<path class="st7" d="M371.22,220.02l-4.71-2.72c-0.38-0.22-0.33-0.6,0.11-0.85l4.67-2.69c0.44-0.25,1.1-0.28,1.48-0.06l4.71,2.72
			c0.38,0.22,0.33,0.6-0.11,0.85l-4.67,2.69C372.26,220.21,371.6,220.24,371.22,220.02z"/>
		<path class="st7" d="M378.49,224.22l-4.71-2.72c-0.38-0.22-0.33-0.6,0.11-0.85l4.67-2.69c0.44-0.25,1.1-0.28,1.48-0.06l4.71,2.72
			c0.38,0.22,0.33,0.6-0.11,0.85l-4.67,2.69C379.53,224.41,378.87,224.43,378.49,224.22z"/>
		<path class="st7" d="M385.76,228.42l-4.71-2.72c-0.38-0.22-0.33-0.6,0.11-0.85l4.67-2.69c0.44-0.25,1.1-0.28,1.48-0.06l4.71,2.72
			c0.38,0.22,0.33,0.6-0.11,0.85l-4.67,2.69C386.8,228.61,386.14,228.63,385.76,228.42z"/>
		<path class="st7" d="M331.02,188.63l-4.71-2.72c-0.38-0.22-0.33-0.6,0.11-0.85l4.67-2.69c0.44-0.25,1.1-0.28,1.48-0.06l4.71,2.72
			c0.38,0.22,0.33,0.6-0.11,0.85l-4.67,2.69C332.06,188.83,331.4,188.85,331.02,188.63z"/>
		<path class="st7" d="M323.64,184.37l-4.71-2.72c-0.38-0.22-0.33-0.6,0.11-0.85l4.67-2.69c0.44-0.25,1.1-0.28,1.48-0.06l4.71,2.72
			c0.38,0.22,0.33,0.6-0.11,0.85l-4.67,2.69C324.68,184.56,324.02,184.59,323.64,184.37z"/>
		<path class="st7" d="M316.25,180.1l-10.14-5.86c-0.38-0.22-0.33-0.6,0.11-0.85l4.67-2.69c0.44-0.25,1.1-0.28,1.48-0.06l10.14,5.86
			c0.38,0.22,0.33,0.6-0.11,0.85l-4.67,2.69C317.29,180.3,316.63,180.32,316.25,180.1z"/>
		<path class="st7" d="M321.42,174.91l-8.23-4.75c-0.38-0.22-0.33-0.6,0.11-0.85l4.67-2.69c0.44-0.25,1.1-0.28,1.48-0.06l8.23,4.75
			c0.38,0.22,0.33,0.6-0.11,0.85l-4.67,2.69C322.45,175.1,321.79,175.13,321.42,174.91z"/>
		<path class="st7" d="M338.3,192.83l-4.71-2.72c-0.38-0.22-0.33-0.6,0.11-0.85l4.67-2.69c0.44-0.25,1.1-0.28,1.48-0.06l4.71,2.72
			c0.38,0.22,0.33,0.6-0.11,0.85l-4.67,2.69C339.33,193.03,338.67,193.05,338.3,192.83z"/>
		<path class="st7" d="M345.57,197.03l-4.71-2.72c-0.38-0.22-0.33-0.6,0.11-0.85l4.67-2.69c0.44-0.25,1.1-0.28,1.48-0.06l4.71,2.72
			c0.38,0.22,0.33,0.6-0.11,0.85l-4.67,2.69C346.61,197.22,345.95,197.25,345.57,197.03z"/>
		<path class="st7" d="M352.84,201.23l-4.71-2.72c-0.38-0.22-0.33-0.6,0.11-0.85l4.67-2.69c0.44-0.25,1.1-0.28,1.48-0.06l4.71,2.72
			c0.38,0.22,0.33,0.6-0.11,0.85l-4.67,2.69C353.88,201.42,353.22,201.45,352.84,201.23z"/>
		<path class="st7" d="M360.12,205.43l-4.71-2.72c-0.38-0.22-0.33-0.6,0.11-0.85l4.67-2.69c0.44-0.25,1.1-0.28,1.48-0.06l4.71,2.72
			c0.38,0.22,0.33,0.6-0.11,0.85l-4.67,2.69C361.15,205.62,360.49,205.65,360.12,205.43z"/>
		<path class="st7" d="M367.39,209.63l-4.71-2.72c-0.38-0.22-0.33-0.6,0.11-0.85l4.67-2.69c0.44-0.25,1.1-0.28,1.48-0.06l4.71,2.72
			c0.38,0.22,0.33,0.6-0.11,0.85l-4.67,2.69C368.43,209.82,367.77,209.85,367.39,209.63z"/>
		<path class="st7" d="M374.66,213.83l-4.71-2.72c-0.38-0.22-0.33-0.6,0.11-0.85l4.67-2.69c0.44-0.25,1.1-0.28,1.48-0.06l4.71,2.72
			c0.38,0.22,0.33,0.6-0.11,0.85l-4.67,2.69C375.7,214.02,375.04,214.05,374.66,213.83z"/>
		<path class="st7" d="M381.93,218.03l-4.71-2.72c-0.38-0.22-0.33-0.6,0.11-0.85l4.67-2.69c0.44-0.25,1.1-0.28,1.48-0.06l4.71,2.72
			c0.38,0.22,0.33,0.6-0.11,0.85l-4.67,2.69C382.97,218.22,382.31,218.25,381.93,218.03z"/>
		<path class="st7" d="M389.21,222.23l-4.71-2.72c-0.38-0.22-0.33-0.6,0.11-0.85l4.67-2.69c0.44-0.25,1.1-0.28,1.48-0.06l4.71,2.72
			c0.38,0.22,0.33,0.6-0.11,0.85l-4.67,2.69C390.25,222.42,389.59,222.45,389.21,222.23z"/>
		<path class="st7" d="M396.48,226.43l-4.71-2.72c-0.38-0.22-0.33-0.6,0.11-0.85l4.67-2.69c0.44-0.25,1.1-0.28,1.48-0.06l4.71,2.72
			c0.38,0.22,0.33,0.6-0.11,0.85l-4.67,2.69C397.52,226.62,396.86,226.65,396.48,226.43z"/>
		<path class="st7" d="M409.41,233.89l-10.28-5.93c-0.38-0.22-0.33-0.6,0.11-0.85l4.67-2.69c0.44-0.25,1.1-0.28,1.48-0.06
			l10.28,5.93c0.38,0.22,0.33,0.6-0.11,0.85l-4.67,2.69C410.45,234.08,409.79,234.11,409.41,233.89z"/>
		<path class="st7" d="M423.57,225.72l-8.67-5.01c-0.38-0.22-0.33-0.6,0.11-0.85l4.67-2.69c0.44-0.25,1.1-0.28,1.48-0.06l8.67,5.01
			c0.38,0.22,0.33,0.6-0.11,0.85l-4.67,2.69C424.61,225.91,423.95,225.94,423.57,225.72z"/>
		<path class="st7" d="M351.03,192.01l-4.71-2.72c-0.38-0.22-0.33-0.6,0.11-0.85l4.67-2.69c0.44-0.25,1.1-0.28,1.48-0.06l4.71,2.72
			c0.38,0.22,0.33,0.6-0.11,0.85l-4.67,2.69C352.07,192.2,351.41,192.23,351.03,192.01z"/>
		<path class="st7" d="M343.58,187.71l-4.71-2.72c-0.38-0.22-0.33-0.6,0.11-0.85l4.67-2.69c0.44-0.25,1.1-0.28,1.48-0.06l4.71,2.72
			c0.38,0.22,0.33,0.6-0.11,0.85l-4.67,2.69C344.62,187.9,343.96,187.93,343.58,187.71z"/>
		<path class="st7" d="M336.12,183.41l-4.71-2.72c-0.38-0.22-0.33-0.6,0.11-0.85l4.67-2.69c0.44-0.25,1.1-0.28,1.48-0.06l4.71,2.72
			c0.38,0.22,0.33,0.6-0.11,0.85l-4.67,2.69C337.16,183.6,336.5,183.62,336.12,183.41z"/>
		<path class="st7" d="M328.67,179.1l-4.71-2.72c-0.38-0.22-0.33-0.6,0.11-0.85l4.67-2.69c0.44-0.25,1.1-0.28,1.48-0.06l4.71,2.72
			c0.38,0.22,0.33,0.6-0.11,0.85l-4.67,2.69C329.71,179.29,329.05,179.32,328.67,179.1z"/>
		<path class="st7" d="M358.31,196.21l-4.71-2.72c-0.38-0.22-0.33-0.6,0.11-0.85l4.67-2.69c0.44-0.25,1.1-0.28,1.48-0.06l4.71,2.72
			c0.38,0.22,0.33,0.6-0.11,0.85l-4.67,2.69C359.34,196.4,358.68,196.43,358.31,196.21z"/>
		<path class="st7" d="M365.58,200.41l-4.71-2.72c-0.38-0.22-0.33-0.6,0.11-0.85l4.67-2.69c0.44-0.25,1.1-0.28,1.48-0.06l4.71,2.72
			c0.38,0.22,0.33,0.6-0.11,0.85l-4.67,2.69C366.62,200.6,365.96,200.63,365.58,200.41z"/>
		<path class="st7" d="M372.85,204.61l-4.71-2.72c-0.38-0.22-0.33-0.6,0.11-0.85l4.67-2.69c0.44-0.25,1.1-0.28,1.48-0.06l4.71,2.72
			c0.38,0.22,0.33,0.6-0.11,0.85l-4.67,2.69C373.89,204.8,373.23,204.83,372.85,204.61z"/>
		<path class="st7" d="M380.13,208.81l-4.71-2.72c-0.38-0.22-0.33-0.6,0.11-0.85l4.67-2.69c0.44-0.25,1.1-0.28,1.48-0.06l4.71,2.72
			c0.38,0.22,0.33,0.6-0.11,0.85l-4.67,2.69C381.16,209,380.5,209.03,380.13,208.81z"/>
		<path class="st7" d="M387.4,213.01l-4.71-2.72c-0.38-0.22-0.33-0.6,0.11-0.85l4.67-2.69c0.44-0.25,1.1-0.28,1.48-0.06l4.71,2.72
			c0.38,0.22,0.33,0.6-0.11,0.85l-4.67,2.69C388.44,213.2,387.78,213.23,387.4,213.01z"/>
		<path class="st7" d="M394.67,217.21l-4.71-2.72c-0.38-0.22-0.33-0.6,0.11-0.85l4.67-2.69c0.44-0.25,1.1-0.28,1.48-0.06l4.71,2.72
			c0.38,0.22,0.33,0.6-0.11,0.85l-4.67,2.69C395.71,217.4,395.05,217.43,394.67,217.21z"/>
		<path class="st7" d="M401.95,221.41l-4.71-2.72c-0.38-0.22-0.33-0.6,0.11-0.85l4.67-2.69c0.44-0.25,1.1-0.28,1.48-0.06l4.71,2.72
			c0.38,0.22,0.33,0.6-0.11,0.85l-4.67,2.69C402.98,221.6,402.32,221.62,401.95,221.41z"/>
		<path class="st7" d="M409.22,225.61l-4.71-2.72c-0.38-0.22-0.33-0.6,0.11-0.85l4.67-2.69c0.44-0.25,1.1-0.28,1.48-0.06l4.71,2.72
			c0.38,0.22,0.33,0.6-0.11,0.85l-4.67,2.69C410.26,225.8,409.6,225.82,409.22,225.61z"/>
		<path class="st7" d="M416.49,229.8l-4.71-2.72c-0.38-0.22-0.33-0.6,0.11-0.85l4.67-2.69c0.44-0.25,1.1-0.28,1.48-0.06l4.71,2.72
			c0.38,0.22,0.33,0.6-0.11,0.85l-4.67,2.69C417.53,230,416.87,230.02,416.49,229.8z"/>
		<path class="st7" d="M347.2,181.63l-4.71-2.72c-0.38-0.22-0.33-0.6,0.11-0.85l4.67-2.69c0.44-0.25,1.1-0.28,1.48-0.06l4.71,2.72
			c0.38,0.22,0.33,0.6-0.11,0.85l-4.67,2.69C348.24,181.82,347.58,181.84,347.2,181.63z"/>
		<path class="st7" d="M339.97,177.45l-4.71-2.72c-0.38-0.22-0.33-0.6,0.11-0.85l4.67-2.69c0.44-0.25,1.1-0.28,1.48-0.06l4.71,2.72
			c0.38,0.22,0.33,0.6-0.11,0.85l-4.67,2.69C341,177.64,340.34,177.67,339.97,177.45z"/>
		<path class="st7" d="M332.73,173.27l-4.71-2.72c-0.38-0.22-0.33-0.6,0.11-0.85l4.67-2.69c0.44-0.25,1.1-0.28,1.48-0.06l4.71,2.72
			c0.38,0.22,0.33,0.6-0.11,0.85l-4.67,2.69C333.77,173.46,333.11,173.49,332.73,173.27z"/>
		<path class="st7" d="M325.49,169.09l-4.71-2.72c-0.38-0.22-0.33-0.6,0.11-0.85l4.67-2.69c0.44-0.25,1.1-0.28,1.48-0.06l4.71,2.72
			c0.38,0.22,0.33,0.6-0.11,0.85l-4.67,2.69C326.53,169.28,325.87,169.31,325.49,169.09z"/>
		<path class="st7" d="M332.93,164.79l-4.71-2.72c-0.38-0.22-0.33-0.6,0.11-0.85l1.54-0.89c0.44-0.25,1.1-0.28,1.48-0.06l4.71,2.72
			c0.38,0.22,0.33,0.6-0.11,0.85l-1.54,0.89C333.97,164.99,333.31,165.01,332.93,164.79z"/>
		<path class="st7" d="M342.38,170.25l-4.71-2.72c-0.38-0.22-0.33-0.6,0.11-0.85l1.54-0.89c0.44-0.25,1.1-0.28,1.48-0.06l4.71,2.72
			c0.38,0.22,0.33,0.6-0.11,0.85l-1.54,0.89C343.42,170.44,342.76,170.47,342.38,170.25z"/>
		<path class="st7" d="M349.59,174.41l-4.71-2.72c-0.38-0.22-0.33-0.6,0.11-0.85l1.54-0.89c0.44-0.25,1.1-0.28,1.48-0.06l4.71,2.72
			c0.38,0.22,0.33,0.6-0.11,0.85l-1.54,0.89C350.62,174.6,349.96,174.63,349.59,174.41z"/>
		<path class="st7" d="M356.79,178.57l-4.71-2.72c-0.38-0.22-0.33-0.6,0.11-0.85l1.54-0.89c0.44-0.25,1.1-0.28,1.48-0.06l4.71,2.72
			c0.38,0.22,0.33,0.6-0.11,0.85l-1.54,0.89C357.83,178.76,357.17,178.79,356.79,178.57z"/>
		<path class="st7" d="M364,182.73l-4.71-2.72c-0.38-0.22-0.33-0.6,0.11-0.85l1.54-0.89c0.44-0.25,1.1-0.28,1.48-0.06l4.71,2.72
			c0.38,0.22,0.33,0.6-0.11,0.85l-1.54,0.89C365.04,182.92,364.38,182.95,364,182.73z"/>
		<path class="st7" d="M404.23,205.96l-4.71-2.72c-0.38-0.22-0.33-0.6,0.11-0.85l1.54-0.89c0.44-0.25,1.1-0.28,1.48-0.06l4.71,2.72
			c0.38,0.22,0.33,0.6-0.11,0.85l-1.54,0.89C405.27,206.15,404.61,206.18,404.23,205.96z"/>
		<path class="st7" d="M411.44,210.12l-4.71-2.72c-0.38-0.22-0.33-0.6,0.11-0.85l1.54-0.89c0.44-0.25,1.1-0.28,1.48-0.06l4.71,2.72
			c0.38,0.22,0.33,0.6-0.11,0.85l-1.54,0.89C412.48,210.31,411.82,210.34,411.44,210.12z"/>
		<path class="st7" d="M418.65,214.28l-4.71-2.72c-0.38-0.22-0.33-0.6,0.11-0.85l1.54-0.89c0.44-0.25,1.1-0.28,1.48-0.06l4.71,2.72
			c0.38,0.22,0.33,0.6-0.11,0.85l-1.54,0.89C419.69,214.47,419.02,214.5,418.65,214.28z"/>
		<path class="st7" d="M425.85,218.44l-4.71-2.72c-0.38-0.22-0.33-0.6,0.11-0.85l1.54-0.89c0.44-0.25,1.1-0.28,1.48-0.06l4.71,2.72
			c0.38,0.22,0.33,0.6-0.11,0.85l-1.54,0.89C426.89,218.63,426.23,218.66,425.85,218.44z"/>
		<path class="st7" d="M354.48,185.83l-4.71-2.72c-0.38-0.22-0.33-0.6,0.11-0.85l4.67-2.69c0.44-0.25,1.1-0.28,1.48-0.06l4.71,2.72
			c0.38,0.22,0.33,0.6-0.11,0.85l-4.67,2.69C355.51,186.02,354.85,186.04,354.48,185.83z"/>
		<path class="st7" d="M361.75,190.02l-4.71-2.72c-0.38-0.22-0.33-0.6,0.11-0.85l4.67-2.69c0.44-0.25,1.1-0.28,1.48-0.06l4.71,2.72
			c0.38,0.22,0.33,0.6-0.11,0.85l-4.67,2.69C362.79,190.22,362.13,190.24,361.75,190.02z"/>
		<path class="st7" d="M369.02,194.22l-4.71-2.72c-0.38-0.22-0.33-0.6,0.11-0.85l4.67-2.69c0.44-0.25,1.1-0.28,1.48-0.06l4.71,2.72
			c0.38,0.22,0.33,0.6-0.11,0.85l-4.67,2.69C370.06,194.41,369.4,194.44,369.02,194.22z"/>
		<path class="st7" d="M376.3,198.42l-4.71-2.72c-0.38-0.22-0.33-0.6,0.11-0.85l4.67-2.69c0.44-0.25,1.1-0.28,1.48-0.06l4.71,2.72
			c0.38,0.22,0.33,0.6-0.11,0.85l-4.67,2.69C377.33,198.61,376.67,198.64,376.3,198.42z"/>
		<path class="st7" d="M383.57,202.62l-4.71-2.72c-0.38-0.22-0.33-0.6,0.11-0.85l4.67-2.69c0.44-0.25,1.1-0.28,1.48-0.06l4.71,2.72
			c0.38,0.22,0.33,0.6-0.11,0.85l-4.67,2.69C384.61,202.81,383.95,202.84,383.57,202.62z"/>
		<path class="st7" d="M390.84,206.82l-4.71-2.72c-0.38-0.22-0.33-0.6,0.11-0.85l4.67-2.69c0.44-0.25,1.1-0.28,1.48-0.06l4.71,2.72
			c0.38,0.22,0.33,0.6-0.11,0.85l-4.67,2.69C391.88,207.01,391.22,207.04,390.84,206.82z"/>
		<path class="st7" d="M398.12,211.02l-4.71-2.72c-0.38-0.22-0.33-0.6,0.11-0.85l4.67-2.69c0.44-0.25,1.1-0.28,1.48-0.06l4.71,2.72
			c0.38,0.22,0.33,0.6-0.11,0.85l-4.67,2.69C399.15,211.21,398.49,211.24,398.12,211.02z"/>
		<path class="st7" d="M405.39,215.22l-4.71-2.72c-0.38-0.22-0.33-0.6,0.11-0.85l4.67-2.69c0.44-0.25,1.1-0.28,1.48-0.06l4.71,2.72
			c0.38,0.22,0.33,0.6-0.11,0.85l-4.67,2.69C406.43,215.41,405.77,215.44,405.39,215.22z"/>
		<path class="st7" d="M412.66,219.42l-4.71-2.72c-0.38-0.22-0.33-0.6,0.11-0.85l4.67-2.69c0.44-0.25,1.1-0.28,1.48-0.06l4.71,2.72
			c0.38,0.22,0.33,0.6-0.11,0.85l-4.67,2.69C413.7,219.61,413.04,219.64,412.66,219.42z"/>
		<path class="st7" d="M312.89,186.34l-13.87-8.01c-0.38-0.22-0.33-0.6,0.11-0.85l4.67-2.69c0.44-0.25,1.1-0.28,1.48-0.06
			l13.87,8.01c0.38,0.22,0.33,0.6-0.11,0.85l-4.67,2.69C313.93,186.53,313.27,186.56,312.89,186.34z"/>
		<path class="st7" d="M402.25,237.93l-13.87-8.01c-0.38-0.22-0.33-0.6,0.11-0.85l4.67-2.69c0.44-0.25,1.1-0.28,1.48-0.06
			l13.87,8.01c0.38,0.22,0.33,0.6-0.11,0.85l-4.67,2.69C403.29,238.12,402.63,238.15,402.25,237.93z"/>
		<path class="st7" d="M373.16,230.41l-4.71-2.72c-0.38-0.22-0.33-0.6,0.11-0.85l5.56-3.21c0.44-0.25,1.1-0.28,1.48-0.06l4.71,2.72
			c0.38,0.22,0.33,0.6-0.11,0.85l-5.56,3.21C374.2,230.6,373.54,230.63,373.16,230.41z"/>
		<path class="st7" d="M320.34,199.92l-7.53-4.35c-0.38-0.22-0.33-0.6,0.11-0.85l5.56-3.21c0.44-0.25,1.1-0.28,1.48-0.06l7.53,4.35
			c0.38,0.22,0.33,0.6-0.11,0.85l-5.56,3.21C321.38,200.11,320.72,200.14,320.34,199.92z"/>
		<path class="st7" d="M366.15,226.37l-7.53-4.35c-0.38-0.22-0.33-0.6,0.11-0.85l5.56-3.21c0.44-0.25,1.1-0.28,1.48-0.06l7.53,4.35
			c0.38,0.22,0.33,0.6-0.11,0.85l-5.56,3.21C367.19,226.56,366.53,226.59,366.15,226.37z"/>
		<path class="st7" d="M330.84,205.98l-7.53-4.35c-0.38-0.22-0.33-0.6,0.11-0.85l5.56-3.21c0.44-0.25,1.1-0.28,1.48-0.06l7.53,4.35
			c0.38,0.22,0.33,0.6-0.11,0.85l-5.56,3.21C331.88,206.17,331.21,206.2,330.84,205.98z"/>
		<path class="st7" d="M330.5,197.54l32.75,18.91c0.41,0.23,0.41,0.62,0,0.85l-5.67,3.27c-0.41,0.23-1.07,0.23-1.47,0l-32.75-18.91
			L330.5,197.54z"/>
		<path class="st7" d="M393.49,238.03l5.25,3.03c0.31,0.18,0.27,0.49-0.09,0.7l-2.27,1.31c-0.36,0.21-0.9,0.23-1.21,0.05l-5.25-3.03
			c-0.31-0.18-0.27-0.49,0.09-0.7l2.27-1.31C392.64,237.87,393.18,237.85,393.49,238.03z"/>
		<path class="st7" d="M386.15,233.79l5.25,3.03c0.31,0.18,0.27,0.49-0.09,0.7l-2.27,1.31c-0.36,0.21-0.9,0.23-1.21,0.05l-5.25-3.03
			c-0.31-0.18-0.27-0.49,0.09-0.7l2.27-1.31C385.3,233.64,385.84,233.61,386.15,233.79z"/>
		<path class="st7" d="M378.88,229.59l5.25,3.03c0.31,0.18,0.27,0.49-0.09,0.7l-2.27,1.31c-0.36,0.21-0.9,0.23-1.21,0.05l-5.25-3.03
			c-0.31-0.18-0.27-0.49,0.09-0.7l2.27-1.31C378.03,229.44,378.57,229.42,378.88,229.59z"/>
		<path class="st7" d="M390.17,231.47l5.25,3.03c0.31,0.18,0.27,0.49-0.09,0.7l-2.27,1.31c-0.36,0.21-0.9,0.23-1.21,0.05l-5.25-3.03
			c-0.31-0.18-0.27-0.49,0.09-0.7l2.27-1.31C389.32,231.32,389.86,231.3,390.17,231.47z"/>
	</g>
	<g class="st6">
		<path class="st7" d="M295.7,185.69l-4.71-2.72c-0.38-0.22-0.33-0.6,0.11-0.85l5.56-3.21c0.44-0.25,1.1-0.28,1.48-0.06l4.71,2.72
			c0.38,0.22,0.33,0.6-0.11,0.85l-5.56,3.21C296.74,185.88,296.08,185.91,295.7,185.69z"/>
		<path class="st7" d="M302.97,189.89l-4.71-2.72c-0.38-0.22-0.33-0.6,0.11-0.85l5.56-3.21c0.44-0.25,1.1-0.28,1.48-0.06l4.71,2.72
			c0.38,0.22,0.33,0.6-0.11,0.85l-5.56,3.21C304.01,190.08,303.35,190.11,302.97,189.89z"/>
		<path class="st7" d="M310.25,194.09l-4.71-2.72c-0.38-0.22-0.33-0.6,0.11-0.85l5.56-3.21c0.44-0.25,1.1-0.28,1.48-0.06l4.71,2.72
			c0.38,0.22,0.33,0.6-0.11,0.85l-5.56,3.21C311.29,194.28,310.63,194.31,310.25,194.09z"/>
		<path class="st7" d="M320.31,190.62l-4.71-2.72c-0.38-0.22-0.33-0.6,0.11-0.85l4.67-2.69c0.44-0.25,1.1-0.28,1.48-0.06l4.71,2.72
			c0.38,0.22,0.33,0.6-0.11,0.85l-4.67,2.69C321.35,190.81,320.68,190.84,320.31,190.62z"/>
		<path class="st7" d="M327.58,194.82l-4.71-2.72c-0.38-0.22-0.33-0.6,0.11-0.85l4.67-2.69c0.44-0.25,1.1-0.28,1.48-0.06l4.71,2.72
			c0.38,0.22,0.33,0.6-0.11,0.85l-4.67,2.69C328.62,195.01,327.96,195.04,327.58,194.82z"/>
		<path class="st7" d="M334.85,199.02l-4.71-2.72c-0.38-0.22-0.33-0.6,0.11-0.85l4.67-2.69c0.44-0.25,1.1-0.28,1.48-0.06l4.71,2.72
			c0.38,0.22,0.33,0.6-0.11,0.85l-4.67,2.69C335.89,199.21,335.23,199.24,334.85,199.02z"/>
		<path class="st7" d="M342.13,203.22l-4.71-2.72c-0.38-0.22-0.33-0.6,0.11-0.85l4.67-2.69c0.44-0.25,1.1-0.28,1.48-0.06l4.71,2.72
			c0.38,0.22,0.33,0.6-0.11,0.85l-4.67,2.69C343.16,203.41,342.5,203.44,342.13,203.22z"/>
		<path class="st7" d="M349.4,207.42l-4.71-2.72c-0.38-0.22-0.33-0.6,0.11-0.85l4.67-2.69c0.44-0.25,1.1-0.28,1.48-0.06l4.71,2.72
			c0.38,0.22,0.33,0.6-0.11,0.85l-4.67,2.69C350.44,207.61,349.78,207.64,349.4,207.42z"/>
		<path class="st7" d="M356.67,211.62l-4.71-2.72c-0.38-0.22-0.33-0.6,0.11-0.85l4.67-2.69c0.44-0.25,1.1-0.28,1.48-0.06l4.71,2.72
			c0.38,0.22,0.33,0.6-0.11,0.85l-4.67,2.69C357.71,211.81,357.05,211.84,356.67,211.62z"/>
		<path class="st7" d="M363.95,215.82l-4.71-2.72c-0.38-0.22-0.33-0.6,0.11-0.85l4.67-2.69c0.44-0.25,1.1-0.28,1.48-0.06l4.71,2.72
			c0.38,0.22,0.33,0.6-0.11,0.85l-4.67,2.69C364.98,216.01,364.32,216.04,363.95,215.82z"/>
		<path class="st7" d="M371.22,220.02l-4.71-2.72c-0.38-0.22-0.33-0.6,0.11-0.85l4.67-2.69c0.44-0.25,1.1-0.28,1.48-0.06l4.71,2.72
			c0.38,0.22,0.33,0.6-0.11,0.85l-4.67,2.69C372.26,220.21,371.6,220.24,371.22,220.02z"/>
		<path class="st7" d="M378.49,224.22l-4.71-2.72c-0.38-0.22-0.33-0.6,0.11-0.85l4.67-2.69c0.44-0.25,1.1-0.28,1.48-0.06l4.71,2.72
			c0.38,0.22,0.33,0.6-0.11,0.85l-4.67,2.69C379.53,224.41,378.87,224.43,378.49,224.22z"/>
		<path class="st7" d="M385.76,228.42l-4.71-2.72c-0.38-0.22-0.33-0.6,0.11-0.85l4.67-2.69c0.44-0.25,1.1-0.28,1.48-0.06l4.71,2.72
			c0.38,0.22,0.33,0.6-0.11,0.85l-4.67,2.69C386.8,228.61,386.14,228.63,385.76,228.42z"/>
		<path class="st7" d="M331.02,188.63l-4.71-2.72c-0.38-0.22-0.33-0.6,0.11-0.85l4.67-2.69c0.44-0.25,1.1-0.28,1.48-0.06l4.71,2.72
			c0.38,0.22,0.33,0.6-0.11,0.85l-4.67,2.69C332.06,188.83,331.4,188.85,331.02,188.63z"/>
		<path class="st7" d="M323.64,184.37l-4.71-2.72c-0.38-0.22-0.33-0.6,0.11-0.85l4.67-2.69c0.44-0.25,1.1-0.28,1.48-0.06l4.71,2.72
			c0.38,0.22,0.33,0.6-0.11,0.85l-4.67,2.69C324.68,184.56,324.02,184.59,323.64,184.37z"/>
		<path class="st7" d="M316.25,180.1l-10.14-5.86c-0.38-0.22-0.33-0.6,0.11-0.85l4.67-2.69c0.44-0.25,1.1-0.28,1.48-0.06l10.14,5.86
			c0.38,0.22,0.33,0.6-0.11,0.85l-4.67,2.69C317.29,180.3,316.63,180.32,316.25,180.1z"/>
		<path class="st7" d="M321.42,174.91l-8.23-4.75c-0.38-0.22-0.33-0.6,0.11-0.85l4.67-2.69c0.44-0.25,1.1-0.28,1.48-0.06l8.23,4.75
			c0.38,0.22,0.33,0.6-0.11,0.85l-4.67,2.69C322.45,175.1,321.79,175.13,321.42,174.91z"/>
		<path class="st7" d="M338.3,192.83l-4.71-2.72c-0.38-0.22-0.33-0.6,0.11-0.85l4.67-2.69c0.44-0.25,1.1-0.28,1.48-0.06l4.71,2.72
			c0.38,0.22,0.33,0.6-0.11,0.85l-4.67,2.69C339.33,193.03,338.67,193.05,338.3,192.83z"/>
		<path class="st7" d="M345.57,197.03l-4.71-2.72c-0.38-0.22-0.33-0.6,0.11-0.85l4.67-2.69c0.44-0.25,1.1-0.28,1.48-0.06l4.71,2.72
			c0.38,0.22,0.33,0.6-0.11,0.85l-4.67,2.69C346.61,197.22,345.95,197.25,345.57,197.03z"/>
		<path class="st7" d="M352.84,201.23l-4.71-2.72c-0.38-0.22-0.33-0.6,0.11-0.85l4.67-2.69c0.44-0.25,1.1-0.28,1.48-0.06l4.71,2.72
			c0.38,0.22,0.33,0.6-0.11,0.85l-4.67,2.69C353.88,201.42,353.22,201.45,352.84,201.23z"/>
		<path class="st7" d="M360.12,205.43l-4.71-2.72c-0.38-0.22-0.33-0.6,0.11-0.85l4.67-2.69c0.44-0.25,1.1-0.28,1.48-0.06l4.71,2.72
			c0.38,0.22,0.33,0.6-0.11,0.85l-4.67,2.69C361.15,205.62,360.49,205.65,360.12,205.43z"/>
		<path class="st7" d="M367.39,209.63l-4.71-2.72c-0.38-0.22-0.33-0.6,0.11-0.85l4.67-2.69c0.44-0.25,1.1-0.28,1.48-0.06l4.71,2.72
			c0.38,0.22,0.33,0.6-0.11,0.85l-4.67,2.69C368.43,209.82,367.77,209.85,367.39,209.63z"/>
		<path class="st7" d="M374.66,213.83l-4.71-2.72c-0.38-0.22-0.33-0.6,0.11-0.85l4.67-2.69c0.44-0.25,1.1-0.28,1.48-0.06l4.71,2.72
			c0.38,0.22,0.33,0.6-0.11,0.85l-4.67,2.69C375.7,214.02,375.04,214.05,374.66,213.83z"/>
		<path class="st7" d="M381.93,218.03l-4.71-2.72c-0.38-0.22-0.33-0.6,0.11-0.85l4.67-2.69c0.44-0.25,1.1-0.28,1.48-0.06l4.71,2.72
			c0.38,0.22,0.33,0.6-0.11,0.85l-4.67,2.69C382.97,218.22,382.31,218.25,381.93,218.03z"/>
		<path class="st7" d="M389.21,222.23l-4.71-2.72c-0.38-0.22-0.33-0.6,0.11-0.85l4.67-2.69c0.44-0.25,1.1-0.28,1.48-0.06l4.71,2.72
			c0.38,0.22,0.33,0.6-0.11,0.85l-4.67,2.69C390.25,222.42,389.59,222.45,389.21,222.23z"/>
		<path class="st7" d="M396.48,226.43l-4.71-2.72c-0.38-0.22-0.33-0.6,0.11-0.85l4.67-2.69c0.44-0.25,1.1-0.28,1.48-0.06l4.71,2.72
			c0.38,0.22,0.33,0.6-0.11,0.85l-4.67,2.69C397.52,226.62,396.86,226.65,396.48,226.43z"/>
		<path class="st7" d="M409.41,233.89l-10.28-5.93c-0.38-0.22-0.33-0.6,0.11-0.85l4.67-2.69c0.44-0.25,1.1-0.28,1.48-0.06
			l10.28,5.93c0.38,0.22,0.33,0.6-0.11,0.85l-4.67,2.69C410.45,234.08,409.79,234.11,409.41,233.89z"/>
		<path class="st7" d="M423.57,225.72l-8.67-5.01c-0.38-0.22-0.33-0.6,0.11-0.85l4.67-2.69c0.44-0.25,1.1-0.28,1.48-0.06l8.67,5.01
			c0.38,0.22,0.33,0.6-0.11,0.85l-4.67,2.69C424.61,225.91,423.95,225.94,423.57,225.72z"/>
		<path class="st7" d="M351.03,192.01l-4.71-2.72c-0.38-0.22-0.33-0.6,0.11-0.85l4.67-2.69c0.44-0.25,1.1-0.28,1.48-0.06l4.71,2.72
			c0.38,0.22,0.33,0.6-0.11,0.85l-4.67,2.69C352.07,192.2,351.41,192.23,351.03,192.01z"/>
		<path class="st7" d="M343.58,187.71l-4.71-2.72c-0.38-0.22-0.33-0.6,0.11-0.85l4.67-2.69c0.44-0.25,1.1-0.28,1.48-0.06l4.71,2.72
			c0.38,0.22,0.33,0.6-0.11,0.85l-4.67,2.69C344.62,187.9,343.96,187.93,343.58,187.71z"/>
		<path class="st7" d="M336.12,183.41l-4.71-2.72c-0.38-0.22-0.33-0.6,0.11-0.85l4.67-2.69c0.44-0.25,1.1-0.28,1.48-0.06l4.71,2.72
			c0.38,0.22,0.33,0.6-0.11,0.85l-4.67,2.69C337.16,183.6,336.5,183.62,336.12,183.41z"/>
		<path class="st7" d="M328.67,179.1l-4.71-2.72c-0.38-0.22-0.33-0.6,0.11-0.85l4.67-2.69c0.44-0.25,1.1-0.28,1.48-0.06l4.71,2.72
			c0.38,0.22,0.33,0.6-0.11,0.85l-4.67,2.69C329.71,179.29,329.05,179.32,328.67,179.1z"/>
		<path class="st7" d="M358.31,196.21l-4.71-2.72c-0.38-0.22-0.33-0.6,0.11-0.85l4.67-2.69c0.44-0.25,1.1-0.28,1.48-0.06l4.71,2.72
			c0.38,0.22,0.33,0.6-0.11,0.85l-4.67,2.69C359.34,196.4,358.68,196.43,358.31,196.21z"/>
		<path class="st7" d="M365.58,200.41l-4.71-2.72c-0.38-0.22-0.33-0.6,0.11-0.85l4.67-2.69c0.44-0.25,1.1-0.28,1.48-0.06l4.71,2.72
			c0.38,0.22,0.33,0.6-0.11,0.85l-4.67,2.69C366.62,200.6,365.96,200.63,365.58,200.41z"/>
		<path class="st7" d="M372.85,204.61l-4.71-2.72c-0.38-0.22-0.33-0.6,0.11-0.85l4.67-2.69c0.44-0.25,1.1-0.28,1.48-0.06l4.71,2.72
			c0.38,0.22,0.33,0.6-0.11,0.85l-4.67,2.69C373.89,204.8,373.23,204.83,372.85,204.61z"/>
		<path class="st7" d="M380.13,208.81l-4.71-2.72c-0.38-0.22-0.33-0.6,0.11-0.85l4.67-2.69c0.44-0.25,1.1-0.28,1.48-0.06l4.71,2.72
			c0.38,0.22,0.33,0.6-0.11,0.85l-4.67,2.69C381.16,209,380.5,209.03,380.13,208.81z"/>
		<path class="st7" d="M387.4,213.01l-4.71-2.72c-0.38-0.22-0.33-0.6,0.11-0.85l4.67-2.69c0.44-0.25,1.1-0.28,1.48-0.06l4.71,2.72
			c0.38,0.22,0.33,0.6-0.11,0.85l-4.67,2.69C388.44,213.2,387.78,213.23,387.4,213.01z"/>
		<path class="st7" d="M394.67,217.21l-4.71-2.72c-0.38-0.22-0.33-0.6,0.11-0.85l4.67-2.69c0.44-0.25,1.1-0.28,1.48-0.06l4.71,2.72
			c0.38,0.22,0.33,0.6-0.11,0.85l-4.67,2.69C395.71,217.4,395.05,217.43,394.67,217.21z"/>
		<path class="st7" d="M401.95,221.41l-4.71-2.72c-0.38-0.22-0.33-0.6,0.11-0.85l4.67-2.69c0.44-0.25,1.1-0.28,1.48-0.06l4.71,2.72
			c0.38,0.22,0.33,0.6-0.11,0.85l-4.67,2.69C402.98,221.6,402.32,221.62,401.95,221.41z"/>
		<path class="st7" d="M409.22,225.61l-4.71-2.72c-0.38-0.22-0.33-0.6,0.11-0.85l4.67-2.69c0.44-0.25,1.1-0.28,1.48-0.06l4.71,2.72
			c0.38,0.22,0.33,0.6-0.11,0.85l-4.67,2.69C410.26,225.8,409.6,225.82,409.22,225.61z"/>
		<path class="st7" d="M416.49,229.8l-4.71-2.72c-0.38-0.22-0.33-0.6,0.11-0.85l4.67-2.69c0.44-0.25,1.1-0.28,1.48-0.06l4.71,2.72
			c0.38,0.22,0.33,0.6-0.11,0.85l-4.67,2.69C417.53,230,416.87,230.02,416.49,229.8z"/>
		<path class="st7" d="M347.2,181.63l-4.71-2.72c-0.38-0.22-0.33-0.6,0.11-0.85l4.67-2.69c0.44-0.25,1.1-0.28,1.48-0.06l4.71,2.72
			c0.38,0.22,0.33,0.6-0.11,0.85l-4.67,2.69C348.24,181.82,347.58,181.84,347.2,181.63z"/>
		<path class="st7" d="M339.97,177.45l-4.71-2.72c-0.38-0.22-0.33-0.6,0.11-0.85l4.67-2.69c0.44-0.25,1.1-0.28,1.48-0.06l4.71,2.72
			c0.38,0.22,0.33,0.6-0.11,0.85l-4.67,2.69C341,177.64,340.34,177.67,339.97,177.45z"/>
		<path class="st7" d="M332.73,173.27l-4.71-2.72c-0.38-0.22-0.33-0.6,0.11-0.85l4.67-2.69c0.44-0.25,1.1-0.28,1.48-0.06l4.71,2.72
			c0.38,0.22,0.33,0.6-0.11,0.85l-4.67,2.69C333.77,173.46,333.11,173.49,332.73,173.27z"/>
		<path class="st7" d="M325.49,169.09l-4.71-2.72c-0.38-0.22-0.33-0.6,0.11-0.85l4.67-2.69c0.44-0.25,1.1-0.28,1.48-0.06l4.71,2.72
			c0.38,0.22,0.33,0.6-0.11,0.85l-4.67,2.69C326.53,169.28,325.87,169.31,325.49,169.09z"/>
		<path class="st7" d="M332.93,164.79l-4.71-2.72c-0.38-0.22-0.33-0.6,0.11-0.85l1.54-0.89c0.44-0.25,1.1-0.28,1.48-0.06l4.71,2.72
			c0.38,0.22,0.33,0.6-0.11,0.85l-1.54,0.89C333.97,164.99,333.31,165.01,332.93,164.79z"/>
		<path class="st7" d="M342.38,170.25l-4.71-2.72c-0.38-0.22-0.33-0.6,0.11-0.85l1.54-0.89c0.44-0.25,1.1-0.28,1.48-0.06l4.71,2.72
			c0.38,0.22,0.33,0.6-0.11,0.85l-1.54,0.89C343.42,170.44,342.76,170.47,342.38,170.25z"/>
		<path class="st7" d="M349.59,174.41l-4.71-2.72c-0.38-0.22-0.33-0.6,0.11-0.85l1.54-0.89c0.44-0.25,1.1-0.28,1.48-0.06l4.71,2.72
			c0.38,0.22,0.33,0.6-0.11,0.85l-1.54,0.89C350.62,174.6,349.96,174.63,349.59,174.41z"/>
		<path class="st7" d="M356.79,178.57l-4.71-2.72c-0.38-0.22-0.33-0.6,0.11-0.85l1.54-0.89c0.44-0.25,1.1-0.28,1.48-0.06l4.71,2.72
			c0.38,0.22,0.33,0.6-0.11,0.85l-1.54,0.89C357.83,178.76,357.17,178.79,356.79,178.57z"/>
		<path class="st7" d="M364,182.73l-4.71-2.72c-0.38-0.22-0.33-0.6,0.11-0.85l1.54-0.89c0.44-0.25,1.1-0.28,1.48-0.06l4.71,2.72
			c0.38,0.22,0.33,0.6-0.11,0.85l-1.54,0.89C365.04,182.92,364.38,182.95,364,182.73z"/>
		<path class="st7" d="M404.23,205.96l-4.71-2.72c-0.38-0.22-0.33-0.6,0.11-0.85l1.54-0.89c0.44-0.25,1.1-0.28,1.48-0.06l4.71,2.72
			c0.38,0.22,0.33,0.6-0.11,0.85l-1.54,0.89C405.27,206.15,404.61,206.18,404.23,205.96z"/>
		<path class="st7" d="M411.44,210.12l-4.71-2.72c-0.38-0.22-0.33-0.6,0.11-0.85l1.54-0.89c0.44-0.25,1.1-0.28,1.48-0.06l4.71,2.72
			c0.38,0.22,0.33,0.6-0.11,0.85l-1.54,0.89C412.48,210.31,411.82,210.34,411.44,210.12z"/>
		<path class="st7" d="M418.65,214.28l-4.71-2.72c-0.38-0.22-0.33-0.6,0.11-0.85l1.54-0.89c0.44-0.25,1.1-0.28,1.48-0.06l4.71,2.72
			c0.38,0.22,0.33,0.6-0.11,0.85l-1.54,0.89C419.69,214.47,419.02,214.5,418.65,214.28z"/>
		<path class="st7" d="M425.85,218.44l-4.71-2.72c-0.38-0.22-0.33-0.6,0.11-0.85l1.54-0.89c0.44-0.25,1.1-0.28,1.48-0.06l4.71,2.72
			c0.38,0.22,0.33,0.6-0.11,0.85l-1.54,0.89C426.89,218.63,426.23,218.66,425.85,218.44z"/>
		<path class="st7" d="M354.48,185.83l-4.71-2.72c-0.38-0.22-0.33-0.6,0.11-0.85l4.67-2.69c0.44-0.25,1.1-0.28,1.48-0.06l4.71,2.72
			c0.38,0.22,0.33,0.6-0.11,0.85l-4.67,2.69C355.51,186.02,354.85,186.04,354.48,185.83z"/>
		<path class="st7" d="M361.75,190.02l-4.71-2.72c-0.38-0.22-0.33-0.6,0.11-0.85l4.67-2.69c0.44-0.25,1.1-0.28,1.48-0.06l4.71,2.72
			c0.38,0.22,0.33,0.6-0.11,0.85l-4.67,2.69C362.79,190.22,362.13,190.24,361.75,190.02z"/>
		<path class="st7" d="M369.02,194.22l-4.71-2.72c-0.38-0.22-0.33-0.6,0.11-0.85l4.67-2.69c0.44-0.25,1.1-0.28,1.48-0.06l4.71,2.72
			c0.38,0.22,0.33,0.6-0.11,0.85l-4.67,2.69C370.06,194.41,369.4,194.44,369.02,194.22z"/>
		<path class="st7" d="M376.3,198.42l-4.71-2.72c-0.38-0.22-0.33-0.6,0.11-0.85l4.67-2.69c0.44-0.25,1.1-0.28,1.48-0.06l4.71,2.72
			c0.38,0.22,0.33,0.6-0.11,0.85l-4.67,2.69C377.33,198.61,376.67,198.64,376.3,198.42z"/>
		<path class="st7" d="M383.57,202.62l-4.71-2.72c-0.38-0.22-0.33-0.6,0.11-0.85l4.67-2.69c0.44-0.25,1.1-0.28,1.48-0.06l4.71,2.72
			c0.38,0.22,0.33,0.6-0.11,0.85l-4.67,2.69C384.61,202.81,383.95,202.84,383.57,202.62z"/>
		<path class="st7" d="M390.84,206.82l-4.71-2.72c-0.38-0.22-0.33-0.6,0.11-0.85l4.67-2.69c0.44-0.25,1.1-0.28,1.48-0.06l4.71,2.72
			c0.38,0.22,0.33,0.6-0.11,0.85l-4.67,2.69C391.88,207.01,391.22,207.04,390.84,206.82z"/>
		<path class="st7" d="M398.12,211.02l-4.71-2.72c-0.38-0.22-0.33-0.6,0.11-0.85l4.67-2.69c0.44-0.25,1.1-0.28,1.48-0.06l4.71,2.72
			c0.38,0.22,0.33,0.6-0.11,0.85l-4.67,2.69C399.15,211.21,398.49,211.24,398.12,211.02z"/>
		<path class="st7" d="M405.39,215.22l-4.71-2.72c-0.38-0.22-0.33-0.6,0.11-0.85l4.67-2.69c0.44-0.25,1.1-0.28,1.48-0.06l4.71,2.72
			c0.38,0.22,0.33,0.6-0.11,0.85l-4.67,2.69C406.43,215.41,405.77,215.44,405.39,215.22z"/>
		<path class="st7" d="M412.66,219.42l-4.71-2.72c-0.38-0.22-0.33-0.6,0.11-0.85l4.67-2.69c0.44-0.25,1.1-0.28,1.48-0.06l4.71,2.72
			c0.38,0.22,0.33,0.6-0.11,0.85l-4.67,2.69C413.7,219.61,413.04,219.64,412.66,219.42z"/>
		<path class="st7" d="M312.89,186.34l-13.87-8.01c-0.38-0.22-0.33-0.6,0.11-0.85l4.67-2.69c0.44-0.25,1.1-0.28,1.48-0.06
			l13.87,8.01c0.38,0.22,0.33,0.6-0.11,0.85l-4.67,2.69C313.93,186.53,313.27,186.56,312.89,186.34z"/>
		<path class="st7" d="M402.25,237.93l-13.87-8.01c-0.38-0.22-0.33-0.6,0.11-0.85l4.67-2.69c0.44-0.25,1.1-0.28,1.48-0.06
			l13.87,8.01c0.38,0.22,0.33,0.6-0.11,0.85l-4.67,2.69C403.29,238.12,402.63,238.15,402.25,237.93z"/>
		<path class="st7" d="M373.16,230.41l-4.71-2.72c-0.38-0.22-0.33-0.6,0.11-0.85l5.56-3.21c0.44-0.25,1.1-0.28,1.48-0.06l4.71,2.72
			c0.38,0.22,0.33,0.6-0.11,0.85l-5.56,3.21C374.2,230.6,373.54,230.63,373.16,230.41z"/>
		<path class="st7" d="M320.34,199.92l-7.53-4.35c-0.38-0.22-0.33-0.6,0.11-0.85l5.56-3.21c0.44-0.25,1.1-0.28,1.48-0.06l7.53,4.35
			c0.38,0.22,0.33,0.6-0.11,0.85l-5.56,3.21C321.38,200.11,320.72,200.14,320.34,199.92z"/>
		<path class="st7" d="M366.15,226.37l-7.53-4.35c-0.38-0.22-0.33-0.6,0.11-0.85l5.56-3.21c0.44-0.25,1.1-0.28,1.48-0.06l7.53,4.35
			c0.38,0.22,0.33,0.6-0.11,0.85l-5.56,3.21C367.19,226.56,366.53,226.59,366.15,226.37z"/>
		<path class="st7" d="M330.84,205.98l-7.53-4.35c-0.38-0.22-0.33-0.6,0.11-0.85l5.56-3.21c0.44-0.25,1.1-0.28,1.48-0.06l7.53,4.35
			c0.38,0.22,0.33,0.6-0.11,0.85l-5.56,3.21C331.88,206.17,331.21,206.2,330.84,205.98z"/>
		<path class="st7" d="M330.5,197.54l32.75,18.91c0.41,0.23,0.41,0.62,0,0.85l-5.67,3.27c-0.41,0.23-1.07,0.23-1.47,0l-32.75-18.91
			L330.5,197.54z"/>
		<path class="st7" d="M393.49,238.03l5.25,3.03c0.31,0.18,0.27,0.49-0.09,0.7l-2.27,1.31c-0.36,0.21-0.9,0.23-1.21,0.05l-5.25-3.03
			c-0.31-0.18-0.27-0.49,0.09-0.7l2.27-1.31C392.64,237.87,393.18,237.85,393.49,238.03z"/>
		<path class="st7" d="M386.15,233.79l5.25,3.03c0.31,0.18,0.27,0.49-0.09,0.7l-2.27,1.31c-0.36,0.21-0.9,0.23-1.21,0.05l-5.25-3.03
			c-0.31-0.18-0.27-0.49,0.09-0.7l2.27-1.31C385.3,233.64,385.84,233.61,386.15,233.79z"/>
		<path class="st7" d="M378.88,229.59l5.25,3.03c0.31,0.18,0.27,0.49-0.09,0.7l-2.27,1.31c-0.36,0.21-0.9,0.23-1.21,0.05l-5.25-3.03
			c-0.31-0.18-0.27-0.49,0.09-0.7l2.27-1.31C378.03,229.44,378.57,229.42,378.88,229.59z"/>
		<path class="st7" d="M390.17,231.47l5.25,3.03c0.31,0.18,0.27,0.49-0.09,0.7l-2.27,1.31c-0.36,0.21-0.9,0.23-1.21,0.05l-5.25-3.03
			c-0.31-0.18-0.27-0.49,0.09-0.7l2.27-1.31C389.32,231.32,389.86,231.3,390.17,231.47z"/>
	</g>
	
		<radialGradient id="SVGID_00000052807661632688632730000005418877260506208922_" cx="304.6801" cy="70.6915" r="215.715" gradientUnits="userSpaceOnUse">
		<stop  offset="0" style="stop-color:#E39A65"/>
		<stop  offset="0.4742" style="stop-color:#A92FFB"/>
		<stop  offset="0.5875" style="stop-color:#891CFB"/>
		<stop  offset="0.7262" style="stop-color:#6507FA"/>
		<stop  offset="1" style="stop-color:#3919BB"/>
	</radialGradient>
	<path style="fill:url(#SVGID_00000052807661632688632730000005418877260506208922_);" d="M467.15,222.98L328.2,142.76
		c-2.18-1.26-3.33-4.34-2.55-6.87l31.42-102.02c0.78-2.53,3.18-3.56,5.37-2.3l138.95,80.22c2.18,1.26,3.33,4.34,2.55,6.87
		l-31.42,102.02C471.73,223.21,469.33,224.24,467.15,222.98z"/>
	
		<linearGradient id="SVGID_00000035518769572638552640000007280436677277998983_" gradientUnits="userSpaceOnUse" x1="328.3897" y1="127.3171" x2="501.2453" y2="127.3171">
		<stop  offset="0" style="stop-color:#3919BB"/>
		<stop  offset="1" style="stop-color:#6507FA"/>
	</linearGradient>
	<path style="fill:url(#SVGID_00000035518769572638552640000007280436677277998983_);" d="M465.83,219.41l-134.77-77.88
		c-2.09-1.21-3.18-4.15-2.44-6.57l30.04-97.53c0.74-2.42,3.04-3.41,5.13-2.2l134.77,77.88c2.09,1.21,3.18,4.15,2.44,6.57
		l-30.04,97.53C470.22,219.63,467.93,220.61,465.83,219.41z"/>
	<path class="st10" d="M465.83,219.41l-134.77-77.88c-2.09-1.21-3.18-4.15-2.44-6.57l30.04-97.53c0.74-2.42,3.04-3.41,5.13-2.2
		l134.77,77.88c2.09,1.21,3.18,4.15,2.44,6.57l-30.04,97.53C470.22,219.63,467.93,220.61,465.83,219.41z"/>
	<path class="st10" d="M465.83,219.41l-134.77-77.88c-2.09-1.21-3.18-4.15-2.44-6.57l30.04-97.53c0.74-2.42,3.04-3.41,5.13-2.2
		l134.77,77.88c2.09,1.21,3.18,4.15,2.44,6.57l-30.04,97.53C470.22,219.63,467.93,220.61,465.83,219.41z"/>
	<path class="st11" d="M458.59,189.6l-91.23-52.67c-1.43-0.83-2.18-2.85-1.67-4.51l20.63-66.99c0.51-1.66,2.09-2.34,3.52-1.51
		l91.23,52.67c1.43,0.83,2.18,2.85,1.67,4.51l-20.63,66.99C461.61,189.75,460.03,190.43,458.59,189.6z"/>
	<g>
		
			<radialGradient id="SVGID_00000183960055360230367330000004488462112491179674_" cx="225.9323" cy="24.6267" r="335.9704" gradientUnits="userSpaceOnUse">
			<stop  offset="0" style="stop-color:#E39A65"/>
			<stop  offset="0.4742" style="stop-color:#A92FFB"/>
			<stop  offset="0.5875" style="stop-color:#891CFB"/>
			<stop  offset="0.7262" style="stop-color:#6507FA"/>
			<stop  offset="1" style="stop-color:#3919BB"/>
		</radialGradient>
		<path style="fill:url(#SVGID_00000183960055360230367330000004488462112491179674_);" d="M446.27,191.22l-91.23-52.67
			c-1.43-0.83-2.18-2.85-1.67-4.51l20.63-66.99c0.51-1.66,2.09-2.34,3.52-1.51l91.23,52.67c1.43,0.83,2.18,2.85,1.67,4.51
			l-20.63,66.99C449.28,191.37,447.7,192.05,446.27,191.22z"/>
	</g>
	<g class="st13">
		<path class="st7" d="M444.11,175.93l-21.84-12.56c-1.06-0.61-1.61-2.1-1.23-3.32l15.21-49.4c0.38-1.22,1.54-1.72,2.6-1.11
			l21.84,12.56c1.06,0.61,1.61,2.1,1.23,3.32l-15.21,49.4C446.33,176.05,445.17,176.55,444.11,175.93z"/>
	</g>
	<path class="st5" d="M468.75,118.21l-91.23-52.67c-0.9-0.52-1.85-0.45-2.57,0.09c0.43-0.01,0.88,0.08,1.32,0.34l91.23,52.67
		c1.43,0.83,2.18,2.85,1.67,4.51l-20.63,66.99c-0.19,0.62-0.53,1.1-0.96,1.42c0.98-0.03,1.85-0.69,2.21-1.85l20.63-66.99
		C470.93,121.06,470.18,119.04,468.75,118.21z"/>
	<g>
		
			<radialGradient id="SVGID_00000045617995500944098270000017305120441714256309_" cx="269.7308" cy="65.6111" r="196.5125" gradientUnits="userSpaceOnUse">
			<stop  offset="0" style="stop-color:#E39A65"/>
			<stop  offset="0.4742" style="stop-color:#A92FFB"/>
			<stop  offset="0.5875" style="stop-color:#891CFB"/>
			<stop  offset="0.7262" style="stop-color:#6507FA"/>
			<stop  offset="1" style="stop-color:#3919BB"/>
		</radialGradient>
		<path style="fill:url(#SVGID_00000045617995500944098270000017305120441714256309_);" d="M435.08,176.9l-21.84-12.56
			c-1.06-0.61-1.61-2.1-1.23-3.32l15.21-49.4c0.38-1.22,1.54-1.72,2.6-1.11l21.84,12.56c1.06,0.61,1.61,2.1,1.23,3.32l-15.21,49.4
			C437.3,177.02,436.14,177.51,435.08,176.9z"/>
	</g>
	<path class="st5" d="M451.66,123.07l-21.84-12.56c-0.72-0.41-1.48-0.31-2.01,0.18c0.25,0.02,0.51,0.1,0.76,0.25l21.84,12.56
		c1.06,0.61,1.61,2.1,1.23,3.32l-15.21,49.4c-0.12,0.4-0.33,0.71-0.59,0.94c0.81,0.08,1.55-0.43,1.84-1.36l15.21-49.4
		C453.27,125.17,452.72,123.68,451.66,123.07z"/>
	<g>
		<g class="st13">
			<path class="st7" d="M390.88,101.7l-4.12-2.38c-0.38-0.22-0.59-0.75-0.46-1.19l0,0c0.13-0.43,0.54-0.61,0.93-0.39l4.12,2.38
				c0.38,0.22,0.59,0.75,0.46,1.19l0,0C391.68,101.75,391.26,101.92,390.88,101.7z"/>
			<path class="st7" d="M400.7,107.37l-6.08-3.51c-0.38-0.22-0.59-0.75-0.46-1.19l0,0c0.13-0.43,0.54-0.61,0.93-0.39l6.08,3.51
				c0.38,0.22,0.59,0.75,0.46,1.19l0,0C401.5,107.42,401.08,107.59,400.7,107.37z"/>
			<path class="st7" d="M382.56,120.05l-4.12-2.38c-0.38-0.22-0.59-0.75-0.46-1.19l0,0c0.13-0.43,0.54-0.61,0.93-0.39l4.12,2.38
				c0.38,0.22,0.59,0.75,0.46,1.19l0,0C383.36,120.1,382.95,120.28,382.56,120.05z"/>
			<path class="st7" d="M391.32,125.11l-6.08-3.51c-0.38-0.22-0.59-0.75-0.46-1.19l0,0c0.13-0.43,0.54-0.61,0.93-0.39l6.08,3.51
				c0.38,0.22,0.59,0.75,0.46,1.19l0,0C392.12,125.16,391.7,125.33,391.32,125.11z"/>
			<path class="st7" d="M378.53,98.43l-2.58-1.49c-0.38-0.22-0.59-0.75-0.46-1.19h0c0.13-0.43,0.54-0.61,0.93-0.39l2.58,1.49
				c0.38,0.22,0.59,0.75,0.46,1.19l0,0C379.33,98.48,378.91,98.65,378.53,98.43z"/>
			<path class="st7" d="M386.28,106.76l-7.87-4.54c-0.38-0.22-0.59-0.75-0.46-1.19l0,0c0.13-0.43,0.54-0.61,0.93-0.39l7.87,4.54
				c0.38,0.22,0.59,0.75,0.46,1.19l0,0C387.08,106.81,386.66,106.98,386.28,106.76z"/>
			<path class="st7" d="M379.02,110.29l-2.58-1.49c-0.38-0.22-0.59-0.75-0.46-1.19l0,0c0.13-0.43,0.54-0.61,0.93-0.39l2.58,1.49
				c0.38,0.22,0.59,0.75,0.46,1.19l0,0C379.82,110.34,379.4,110.51,379.02,110.29z"/>
			<path class="st7" d="M392.27,133.38l-6.88-3.97c-0.38-0.22-0.59-0.75-0.46-1.19l0,0c0.13-0.43,0.54-0.61,0.93-0.39l6.88,3.97
				c0.38,0.22,0.59,0.75,0.46,1.19l0,0C393.06,133.42,392.65,133.6,392.27,133.38z"/>
			<path class="st7" d="M376.13,116.34l-1.65-0.95c-0.38-0.22-0.59-0.75-0.46-1.19l0,0c0.13-0.43,0.54-0.61,0.93-0.39l1.65,0.95
				c0.38,0.22,0.59,0.75,0.46,1.19l0,0C376.93,116.39,376.52,116.56,376.13,116.34z"/>
			<path class="st7" d="M374.57,123.16l-2.05-1.19c-0.38-0.22-0.59-0.75-0.46-1.19l0,0c0.13-0.43,0.54-0.61,0.93-0.39l2.05,1.19
				c0.38,0.22,0.59,0.75,0.46,1.19l0,0C375.37,123.21,374.95,123.38,374.57,123.16z"/>
			<path class="st7" d="M382.56,127.77l-5.41-3.13c-0.38-0.22-0.59-0.75-0.46-1.19l0,0c0.13-0.43,0.54-0.61,0.93-0.39l5.41,3.12
				c0.38,0.22,0.59,0.75,0.46,1.19l0,0C383.35,127.82,382.94,127.99,382.56,127.77z"/>
			<path class="st7" d="M375.43,127.51l-3.89-2.25c-0.38-0.22-0.59-0.75-0.46-1.19l0,0c0.13-0.43,0.54-0.61,0.93-0.39l3.89,2.25
				c0.38,0.22,0.59,0.75,0.46,1.19l0,0C376.22,127.56,375.81,127.73,375.43,127.51z"/>
			<path class="st7" d="M398.17,136.8l-2.5-1.44c-0.38-0.22-0.59-0.75-0.46-1.19l0,0c0.13-0.43,0.54-0.61,0.93-0.39l2.5,1.44
				c0.38,0.22,0.59,0.75,0.46,1.19l0,0C398.97,136.85,398.55,137.02,398.17,136.8z"/>
			<path class="st7" d="M388.6,115.82l-6.88-3.97c-0.38-0.22-0.59-0.75-0.46-1.19l0,0c0.13-0.43,0.54-0.61,0.93-0.39l6.88,3.97
				c0.38,0.22,0.59,0.75,0.46,1.19l0,0C389.4,115.87,388.98,116.04,388.6,115.82z"/>
		</g>
		<path class="st15" d="M389.42,112.43l-11.99-6.92c-0.38-0.22-0.59-0.75-0.46-1.19l0,0c0.13-0.43,0.54-0.61,0.93-0.39l11.99,6.92
			c0.38,0.22,0.59,0.75,0.46,1.19l0,0C390.21,112.48,389.8,112.65,389.42,112.43z"/>
		<path class="st15" d="M382.34,116.07l-6.88-3.97c-0.38-0.22-0.59-0.75-0.46-1.19l0,0c0.13-0.43,0.54-0.61,0.93-0.39l6.88,3.97
			c0.38,0.22,0.59,0.75,0.46,1.19l0,0C383.14,116.12,382.72,116.29,382.34,116.07z"/>
		<path class="st15" d="M393.82,118.83l-2.5-1.44c-0.38-0.22-0.59-0.75-0.46-1.19l0,0c0.13-0.43,0.54-0.61,0.93-0.39l2.5,1.44
			c0.38,0.22,0.59,0.75,0.46,1.19l0,0C394.62,118.88,394.2,119.05,393.82,118.83z"/>
		<path class="st15" d="M419.24,118.07l-14.8-8.55c-0.38-0.22-0.59-0.75-0.46-1.19l0,0c0.13-0.43,0.54-0.61,0.93-0.39l14.8,8.55
			c0.38,0.22,0.59,0.75,0.46,1.19l0,0C420.04,118.12,419.62,118.3,419.24,118.07z"/>
		<path class="st16" d="M381.77,123.45l-8.27-4.77c-0.38-0.22-0.59-0.75-0.46-1.19l0,0c0.13-0.43,0.54-0.61,0.93-0.39l8.27,4.77
			c0.38,0.22,0.59,0.75,0.46,1.19l0,0C382.56,123.5,382.15,123.67,381.77,123.45z"/>
		<path class="st16" d="M383.01,97.16l-6.08-3.51c-0.38-0.22-0.59-0.75-0.46-1.19l0,0c0.13-0.43,0.54-0.61,0.93-0.39l6.08,3.51
			c0.38,0.22,0.59,0.75,0.46,1.19l0,0C383.81,97.21,383.4,97.38,383.01,97.16z"/>
		<path class="st15" d="M374.15,130.64l-7.04-4.06c-0.38-0.22-0.59-0.75-0.46-1.19l0,0c0.13-0.43,0.54-0.61,0.93-0.39l7.04,4.06
			c0.38,0.22,0.59,0.75,0.46,1.19l0,0C374.95,130.68,374.54,130.86,374.15,130.64z"/>
	</g>
	<g>
		<path class="st5" d="M464.32,108.51l-4.12-2.38c-0.38-0.22-0.59-0.75-0.46-1.19l0,0c0.13-0.43,0.54-0.61,0.93-0.39l4.12,2.38
			c0.38,0.22,0.59,0.75,0.46,1.19l0,0C465.11,108.56,464.7,108.73,464.32,108.51z"/>
		<path class="st5" d="M472.18,113.05l-4.12-2.38c-0.38-0.22-0.59-0.75-0.46-1.19l0,0c0.13-0.43,0.54-0.61,0.93-0.39l4.12,2.38
			c0.38,0.22,0.59,0.75,0.46,1.19l0,0C472.98,113.1,472.56,113.27,472.18,113.05z"/>
		<path class="st5" d="M480.04,117.59l-4.12-2.38c-0.38-0.22-0.59-0.75-0.46-1.19l0,0c0.13-0.43,0.54-0.61,0.93-0.39l4.12,2.38
			c0.38,0.22,0.59,0.75,0.46,1.19l0,0C480.84,117.64,480.43,117.81,480.04,117.59z"/>
		<path class="st16" d="M483.91,119.83l-0.12-0.07c-0.38-0.22-0.59-0.75-0.46-1.19l0,0c0.13-0.43,0.54-0.61,0.93-0.39l0.12,0.07
			c0.38,0.22,0.59,0.75,0.46,1.19l0,0C484.71,119.87,484.29,120.05,483.91,119.83z"/>
	</g>
	<g>
		<path class="st15" d="M423.14,139.46c-0.44-0.25-0.91-0.11-1.04,0.33l-0.79,2.58c-0.13,0.44,0.12,0.99,0.56,1.25
			c0.44,0.25,0.91,0.11,1.04-0.33l0.79-2.58C423.83,140.27,423.58,139.71,423.14,139.46z"/>
		<path class="st16" d="M426.46,141.76c-0.44-0.25-0.91-0.11-1.04,0.33l-0.69,2.25c-0.13,0.44,0.12,0.99,0.56,1.25
			c0.44,0.25,0.91,0.11,1.04-0.33l0.69-2.25C427.15,142.57,426.9,142.01,426.46,141.76z"/>
		<path class="st15" d="M430.64,141.22c-0.44-0.25-0.91-0.11-1.04,0.33l-1.45,4.77c-0.13,0.44,0.12,0.99,0.56,1.25
			c0.44,0.25,0.91,0.11,1.04-0.33l1.45-4.77C431.34,142.03,431.09,141.47,430.64,141.22z"/>
		<path class="st15" d="M434.9,140.44c-0.44-0.25-0.91-0.11-1.04,0.33l-2.29,7.52c-0.13,0.44,0.12,0.99,0.56,1.25
			c0.44,0.25,0.91,0.11,1.04-0.33l2.29-7.52C435.59,141.26,435.34,140.7,434.9,140.44z"/>
		<path class="st16" d="M438.08,143.21c-0.44-0.25-0.91-0.11-1.04,0.33l-2.05,6.73c-0.13,0.44,0.12,0.99,0.56,1.25
			c0.44,0.25,0.91,0.11,1.04-0.33l2.05-6.73C438.77,144.02,438.52,143.46,438.08,143.21z"/>
		<path class="st15" d="M443.03,140.16c-0.44-0.25-0.91-0.11-1.04,0.33l-3.58,11.75c-0.13,0.44,0.12,0.99,0.56,1.25
			c0.44,0.25,0.91,0.11,1.04-0.33l3.58-11.75C443.72,140.97,443.47,140.41,443.03,140.16z"/>
	</g>
	<path class="st10" d="M331.2,245.92c-1.26,0-2.46-0.26-3.38-0.79l-36.55-21.1c-0.97-0.56-1.5-1.36-1.5-2.25
		c0-1.04,0.73-2.05,2.02-2.79l18.82-10.86c2.3-1.33,5.67-1.46,7.68-0.3l36.55,21.1c0.97,0.56,1.5,1.36,1.5,2.25
		c0,1.04-0.74,2.05-2.02,2.79l-18.82,10.86C334.26,245.55,332.69,245.92,331.2,245.92z M314.92,208.1c-1.32,0-2.72,0.32-3.79,0.94
		l-18.82,10.86c-0.95,0.55-1.49,1.23-1.49,1.88c0,0.64,0.53,1.08,0.97,1.34l36.55,21.1c1.66,0.96,4.7,0.82,6.63-0.3l18.82-10.86
		c0.95-0.55,1.49-1.23,1.49-1.88c0-0.64-0.53-1.08-0.97-1.34l-36.55-21.1C317.01,208.31,315.99,208.1,314.92,208.1z"/>
</g>
<g>
	<g>
		<ellipse class="st1" cx="490.75" cy="284.74" rx="20.66" ry="11.93"/>
		
			<radialGradient id="SVGID_00000181064665842950580380000018038991157598332289_" cx="457.6849" cy="218.4538" r="173.9348" gradientUnits="userSpaceOnUse">
			<stop  offset="0" style="stop-color:#E39A65"/>
			<stop  offset="0.1528" style="stop-color:#A92FFB"/>
			<stop  offset="0.4087" style="stop-color:#3919BB"/>
			<stop  offset="0.9311" style="stop-color:#3919BB"/>
		</radialGradient>
		<path style="fill:url(#SVGID_00000181064665842950580380000018038991157598332289_);" d="M521.38,199.72h-58.85l5.47,63.71l0,0
			c0,3.54,2.34,7.08,7.02,9.78c9.35,5.4,24.52,5.4,33.87,0c4.68-2.7,7.01-6.24,7.01-9.78L521.38,199.72z"/>
		<path class="st10" d="M521.38,199.72h-58.85l0.9,10.48c1.35,1.73,3.16,3.39,5.45,4.91c11.24,7.46,29.8,8.9,42.46,3.52l-1.96,46.6
			c-0.09,2.03-0.79,4.01-2.1,5.56c-1.91,2.24-5.58,4.88-12.64,6.38c5.2-0.34,10.25-1.65,14.24-3.95c4.68-2.7,7.01-6.24,7.01-9.78
			l4.39-51.1l0,0L521.38,199.72z"/>
		<ellipse class="st10" cx="491.96" cy="199.72" rx="29.42" ry="16.99"/>
		<ellipse class="st10" cx="491.96" cy="193.74" rx="25.34" ry="14.63"/>
		
			<linearGradient id="SVGID_00000098222457976196312730000017617749519887491507_" gradientUnits="userSpaceOnUse" x1="460.7633" y1="196.9069" x2="523.1523" y2="196.9069">
			<stop  offset="0" style="stop-color:#E39A65"/>
			<stop  offset="0.252" style="stop-color:#A92FFB"/>
			<stop  offset="0.5556" style="stop-color:#3919BB"/>
		</linearGradient>
		<path style="fill:url(#SVGID_00000098222457976196312730000017617749519887491507_);" d="M523.12,198.92L523.12,198.92l0-0.05
			c0-0.03-0.01-0.06-0.01-0.09l-0.56-5.7l-0.02,0.06c-0.25-4.32-3.23-8.59-8.94-11.89c-11.95-6.9-31.32-6.9-43.26,0
			c-5.85,3.38-8.83,7.79-8.95,12.22l-0.01-0.01l-0.54,5.08c-0.01,0.13-0.03,0.26-0.04,0.4l-0.01,0.08l0.01,0
			c-0.32,4.84,2.71,9.74,9.11,13.43c12.18,7.03,31.94,7.03,44.12,0C520.46,208.73,523.49,203.79,523.12,198.92z"/>
		
			<linearGradient id="SVGID_00000183218911534678830960000016141556025789698208_" gradientUnits="userSpaceOnUse" x1="466.6133" y1="193.7368" x2="517.2994" y2="193.7368">
			<stop  offset="0" style="stop-color:#4F1FEC"/>
			<stop  offset="1" style="stop-color:#A92FFB"/>
		</linearGradient>
		
			<ellipse style="fill:url(#SVGID_00000183218911534678830960000016141556025789698208_);" cx="491.96" cy="193.74" rx="25.34" ry="14.63"/>
		
			<linearGradient id="SVGID_00000022549067970518317720000010648827078382267583_" gradientUnits="userSpaceOnUse" x1="465.4108" y1="193.7368" x2="516.0969" y2="193.7368">
			<stop  offset="0" style="stop-color:#4F1FEC"/>
			<stop  offset="1" style="stop-color:#A92FFB"/>
		</linearGradient>
		
			<ellipse style="fill:url(#SVGID_00000022549067970518317720000010648827078382267583_);" cx="490.75" cy="193.74" rx="25.34" ry="14.63"/>
		<path class="st10" d="M477.04,185.57c9.9-5.71,25.94-5.71,35.84,0c0.13,0.07,0.23,0.15,0.35,0.23c-0.95-0.85-2.07-1.66-3.36-2.41
			c-9.9-5.71-25.94-5.71-35.84,0c-9.77,5.64-9.88,14.74-0.35,20.47C467.32,198.19,468.44,190.54,477.04,185.57z"/>
		
			<linearGradient id="SVGID_00000108277118153714166590000013487050572723563667_" gradientUnits="userSpaceOnUse" x1="466.6175" y1="187.056" x2="530.5241" y2="187.056">
			<stop  offset="0" style="stop-color:#131060"/>
			<stop  offset="0.1857" style="stop-color:#141062"/>
			<stop  offset="0.2823" style="stop-color:#19106A"/>
			<stop  offset="0.3584" style="stop-color:#221078"/>
			<stop  offset="0.4238" style="stop-color:#2E0F8B"/>
			<stop  offset="0.4823" style="stop-color:#3E0FA3"/>
			<stop  offset="0.5359" style="stop-color:#510EC2"/>
			<stop  offset="0.5847" style="stop-color:#680DE5"/>
			<stop  offset="0.6071" style="stop-color:#740DF8"/>
			<stop  offset="0.6179" style="stop-color:#7A14F0"/>
			<stop  offset="0.6826" style="stop-color:#9B3CC3"/>
			<stop  offset="0.7477" style="stop-color:#B75D9D"/>
			<stop  offset="0.8123" style="stop-color:#CC7680"/>
			<stop  offset="0.8762" style="stop-color:#DC886C"/>
			<stop  offset="0.9391" style="stop-color:#E5935F"/>
			<stop  offset="1" style="stop-color:#E8975B"/>
		</linearGradient>
		<path style="fill:url(#SVGID_00000108277118153714166590000013487050572723563667_);" d="M474.04,185.93
			c9.9-5.71,25.94-5.71,35.84,0c4.39,2.53,6.83,5.77,7.32,9.08c0.62-4.16-1.82-8.44-7.32-11.62c-9.9-5.71-25.94-5.71-35.84,0
			c-5.51,3.18-7.95,7.46-7.32,11.62C467.21,191.7,469.65,188.46,474.04,185.93z"/>
		
			<radialGradient id="SVGID_00000088855222988335983880000006045921236733286325_" cx="452.9762" cy="179.2555" r="113.7808" gradientUnits="userSpaceOnUse">
			<stop  offset="0" style="stop-color:#E39A65"/>
			<stop  offset="0.252" style="stop-color:#A92FFB"/>
			<stop  offset="0.7357" style="stop-color:#3919BB"/>
		</radialGradient>
		<path style="fill:url(#SVGID_00000088855222988335983880000006045921236733286325_);" d="M513.78,181.39
			c-11.93-7.03-31.37-7.2-43.42-0.38c-12.05,6.82-12.15,18.04-0.22,25.07c11.93,7.03,31.37,7.2,43.42,0.38
			C525.61,199.65,525.71,188.42,513.78,181.39z M509.88,204.08c-3.31,1.91-7.3,3.16-11.52,3.8l-0.46-1.51
			c-0.19-0.61-0.75-1.03-1.39-1.03h-9.1c-0.64,0-1.2,0.42-1.39,1.03l-0.46,1.51c-4.22-0.63-8.22-1.89-11.52-3.8
			c-9.9-5.71-9.9-14.98,0-20.69c9.9-5.71,25.94-5.71,35.84,0C519.77,189.1,519.77,198.37,509.88,204.08z"/>
		<g>
			<path class="st5" d="M509.88,182.31c-9.9-5.71-25.94-5.71-35.84,0c-5.19,2.99-7.65,6.96-7.4,10.89c0.23-3.56,2.69-7.08,7.4-9.8
				c9.9-5.71,25.94-5.71,35.84,0c4.71,2.72,7.17,6.24,7.4,9.8C517.53,189.27,515.06,185.3,509.88,182.31z"/>
			<path class="st5" d="M513.56,205.38c-12.05,6.82-31.49,6.65-43.42-0.38c-5.68-3.34-8.62-7.64-8.86-11.96
				c-0.23,4.68,2.71,9.42,8.86,13.04c11.93,7.03,31.37,7.2,43.42,0.38c6.32-3.57,9.34-8.36,9.08-13.11
				C522.42,197.74,519.39,202.08,513.56,205.38z"/>
		</g>
		<path class="st23" d="M494.68,208.67h-5.44c-0.38,0-0.69-0.31-0.69-0.69v-0.1c0-0.38,0.31-0.69,0.69-0.69h5.44
			c0.38,0,0.69,0.31,0.69,0.69v0.1C495.36,208.36,495.06,208.67,494.68,208.67z"/>
		
			<linearGradient id="SVGID_00000142878787132083934530000001947767883955727490_" gradientUnits="userSpaceOnUse" x1="487.9451" y1="207.6813" x2="496.7861" y2="207.6813">
			<stop  offset="0" style="stop-color:#131060"/>
			<stop  offset="0.1857" style="stop-color:#141062"/>
			<stop  offset="0.2823" style="stop-color:#19106A"/>
			<stop  offset="0.3584" style="stop-color:#221078"/>
			<stop  offset="0.4238" style="stop-color:#2E0F8B"/>
			<stop  offset="0.4823" style="stop-color:#3E0FA3"/>
			<stop  offset="0.5359" style="stop-color:#510EC2"/>
			<stop  offset="0.5847" style="stop-color:#680DE5"/>
			<stop  offset="0.6071" style="stop-color:#740DF8"/>
			<stop  offset="0.6179" style="stop-color:#7A14F0"/>
			<stop  offset="0.6826" style="stop-color:#9B3CC3"/>
			<stop  offset="0.7477" style="stop-color:#B75D9D"/>
			<stop  offset="0.8123" style="stop-color:#CC7680"/>
			<stop  offset="0.8762" style="stop-color:#DC886C"/>
			<stop  offset="0.9391" style="stop-color:#E5935F"/>
			<stop  offset="1" style="stop-color:#E8975B"/>
		</linearGradient>
		<path style="fill:url(#SVGID_00000142878787132083934530000001947767883955727490_);" d="M494.68,207.2h-5.44
			c-0.38,0-0.69,0.31-0.69,0.69v0.1c0,0.06,0.02,0.12,0.04,0.18c0.08-0.29,0.34-0.5,0.65-0.5h5.44c0.31,0,0.57,0.22,0.65,0.5
			c0.02-0.06,0.04-0.12,0.04-0.18v-0.1C495.36,207.51,495.06,207.2,494.68,207.2z"/>
	</g>
	<g class="st13">
		<path class="st15" d="M490.68,260.07c-0.69,2.61-3.37,4.16-5.98,3.47c-2.61-0.69-4.16-3.37-3.47-5.98
			c0.69-2.61,3.15-3.35,5.76-2.65C489.6,255.6,491.37,257.46,490.68,260.07z"/>
		<path class="st15" d="M494.52,254.92c-0.98,0.96-2.24,0.84-3.08-0.02c-0.84-0.85-0.93-2.12,0.05-3.08
			c0.98-0.96,2.85-1.43,3.69-0.58C496.02,252.1,495.51,253.96,494.52,254.92z"/>
		<path class="st15" d="M489.42,250.84c-0.24,1.35-1.34,1.98-2.51,1.78c-1.18-0.21-1.99-1.18-1.75-2.53s1.49-2.83,2.66-2.62
			C488.99,247.67,489.66,249.48,489.42,250.84z"/>
		<path class="st15" d="M483.12,250.21c0.52,1.27-0.06,2.39-1.17,2.85c-1.1,0.45-2.31,0.07-2.83-1.2c-0.52-1.27-0.26-3.18,0.84-3.64
			C481.06,247.76,482.59,248.94,483.12,250.21z"/>
	</g>
</g>
</svg>
